<?xml version="1.0" encoding="UTF-8"?>
<svg version="1.1" xmlns="http://www.w3.org/2000/svg" width="500" height="500">
<path d="M0 0 C4.04591133 1.2231825 7.65177239 2.38291154 11 5 C11.60127258 7.82841492 11.60127258 7.82841492 11.56762695 11.30737305 C11.5672493 12.60849533 11.56687164 13.90961761 11.56648254 15.25016785 C11.54094909 16.67069451 11.5148691 18.09121143 11.48828125 19.51171875 C11.47895464 20.96473475 11.47183781 22.41776649 11.46684265 23.87080383 C11.44776018 27.69348637 11.3986506 31.51521754 11.34332275 35.33752441 C11.29215602 39.23855722 11.26933424 43.13974391 11.24414062 47.04101562 C11.19053136 54.69444394 11.10520564 62.34708863 11 70 C9.57264526 70.75531006 9.57264526 70.75531006 8.11645508 71.52587891 C0.24356261 75.70193547 -7.57076395 79.95916863 -15.3125 84.375 C-17.28356633 85.49399675 -19.25492446 86.61247965 -21.2265625 87.73046875 C-22.19110352 88.27751465 -23.15564453 88.82456055 -24.14941406 89.38818359 C-28.48518787 91.83977478 -32.83388009 94.26777165 -37.1875 96.6875 C-38.29121948 97.30214111 -38.29121948 97.30214111 -39.41723633 97.92919922 C-41.27439855 98.95985722 -43.13590396 99.98195532 -45 101 C-45.75925781 101.41894531 -46.51851563 101.83789062 -47.30078125 102.26953125 C-49 103 -49 103 -52 103 C-52 103.66 -52 104.32 -52 105 C-53.89192475 105.98669759 -55.78871978 106.9640602 -57.6875 107.9375 C-59.27111328 108.75541016 -59.27111328 108.75541016 -60.88671875 109.58984375 C-63.74068638 110.88254427 -65.88249083 111.80674495 -69 112 C-71.2890625 110.99609375 -71.2890625 110.99609375 -73.625 109.4375 C-83.96448913 102.64449093 -95.20373627 97.20157048 -106.11328125 91.38085938 C-110.08073174 89.26349369 -114.04136189 87.13381342 -118 85 C-118.78568359 84.58693604 -119.57136719 84.17387207 -120.38085938 83.74829102 C-124.88700549 81.31779707 -124.88700549 81.31779707 -126 78.1875 C-126 74.69795942 -125.61779131 71.43217396 -125 68 C-119.02605196 69.65279229 -113.88361504 72.63568537 -108.5 75.625 C-107.52184326 76.16334473 -106.54368652 76.70168945 -105.53588867 77.25634766 C-99.00833244 80.85831463 -92.52014395 84.52443618 -86.0625 88.25 C-82.14474581 90.48871668 -78.18267382 92.63958437 -74.20703125 94.7734375 C-72 96 -72 96 -69 98 C-65.1878914 97.67147682 -62.61844741 96.36316153 -59.4375 94.3125 C-55.82368747 92.06650753 -52.20029375 90.0507043 -48.375 88.1875 C-43.11058822 85.6019408 -38.00144022 82.79104347 -32.90853882 79.88774109 C-26.47169761 76.23275005 -19.96579998 72.70902454 -13.453125 69.19140625 C-11.79531006 68.29476257 -11.79531006 68.29476257 -10.10400391 67.38000488 C-7.40304887 65.9192992 -4.7017071 64.45931406 -2 63 C-1.98969254 62.22547989 -1.97938507 61.45095978 -1.96876526 60.65296936 C-1.87095703 53.36871079 -1.76846689 46.08454054 -1.66066074 38.80042362 C-1.60539769 35.05521202 -1.55197245 31.30999266 -1.50268555 27.56469727 C-1.45509165 23.95311414 -1.40275094 20.34162868 -1.34705925 16.73016167 C-1.32661306 15.34942481 -1.30790378 13.96866114 -1.29092598 12.58787727 C-1.2669322 10.66016686 -1.23629736 8.73254251 -1.20532227 6.80493164 C-1.18977798 5.70572891 -1.1742337 4.60652618 -1.15821838 3.47401428 C-1 1 -1 1 0 0 Z " fill="#1885C2" transform="translate(321,192)"/>
<path d="M0 0 C2.39029047 0.29136248 2.39029047 0.29136248 6.03515625 -0.84375 C6.03515625 5.75625 6.03515625 12.35625 6.03515625 19.15625 C3.72515625 20.47625 1.41515625 21.79625 -0.96484375 23.15625 C-0.96484375 33.71625 -0.96484375 44.27625 -0.96484375 55.15625 C4.31515625 58.12625 9.59515625 61.09625 15.03515625 64.15625 C15.03515625 64.81625 15.03515625 65.47625 15.03515625 66.15625 C15.74671875 66.25679688 16.45828125 66.35734375 17.19140625 66.4609375 C21.37868695 67.48475064 24.66061313 69.74817175 28.31640625 71.9765625 C31.51871588 73.36607042 32.76852013 73.25041453 36.03515625 72.15625 C38.16956646 71.21406067 38.16956646 71.21406067 40.16015625 70.09375 C42.8576433 68.61905377 43.86904237 68.15625 47.03515625 68.15625 C47.03515625 74.09625 47.03515625 80.03625 47.03515625 86.15625 C35.88661729 92.68222403 35.88661729 92.68222403 30.03515625 92.15625 C27.66015625 91.15625 27.66015625 91.15625 26.03515625 90.15625 C26.03515625 89.49625 26.03515625 88.83625 26.03515625 88.15625 C25.51953125 88.07375 25.00390625 87.99125 24.47265625 87.90625 C20.99059893 86.83484775 18.1631474 85.02101395 15.03515625 83.15625 C15.03515625 77.87625 15.03515625 72.59625 15.03515625 67.15625 C13.44703125 67.94 11.85890625 68.72375 10.22265625 69.53125 C9.32933594 69.97210938 8.43601563 70.41296875 7.515625 70.8671875 C4.88959244 72.17491905 4.88959244 72.17491905 2.03515625 74.15625 C-2.88385194 73.87098927 -6.50162359 72.06917446 -10.77734375 69.71875 C-11.91816406 69.10128906 -13.05898437 68.48382813 -14.234375 67.84765625 C-16.96484375 66.15625 -16.96484375 66.15625 -17.96484375 64.15625 C-18.07034344 62.50778873 -18.11358658 60.85515642 -18.12597656 59.20336914 C-18.13558411 58.17212418 -18.14519165 57.14087921 -18.15509033 56.0783844 C-18.15934021 54.96068161 -18.16359009 53.84297882 -18.16796875 52.69140625 C-18.17366882 51.54715683 -18.1793689 50.40290741 -18.1852417 49.22398376 C-18.19469994 46.80045499 -18.20122894 44.37691331 -18.20507812 41.95336914 C-18.21479455 38.23756628 -18.24581533 34.52231383 -18.27734375 30.80664062 C-18.28387247 28.45573246 -18.28912345 26.10482033 -18.29296875 23.75390625 C-18.30531555 22.63822769 -18.31766235 21.52254913 -18.3303833 20.37306213 C-18.3273822 19.33866501 -18.3243811 18.30426788 -18.32128906 17.23852539 C-18.32493469 16.32744522 -18.32858032 15.41636505 -18.33233643 14.47767639 C-17.89423944 11.71024734 -17.19710046 10.80302706 -14.96484375 9.15625 C-14.30484375 9.15625 -13.64484375 9.15625 -12.96484375 9.15625 C-12.81015625 7.7640625 -12.81015625 7.7640625 -12.65234375 6.34375 C-11.95022527 3.0884734 -11.58710267 2.07251613 -8.96484375 0.15625 C-5.63131765 -0.95492537 -3.41687293 -0.57935418 0 0 Z " fill="#1B8FC4" transform="translate(221.96484375,180.84375)"/>
<path d="M0 0 C3.359375 1.63671875 3.359375 1.63671875 6.75 3.6875 C7.99040115 4.42399329 9.23129115 5.15966386 10.47265625 5.89453125 C11.07609863 6.25627441 11.67954102 6.61801758 12.30126953 6.99072266 C23.85273968 13.85386977 35.96700245 20.02317787 48 26 C48 26.66 48 27.32 48 28 C48.83337891 28.16435547 48.83337891 28.16435547 49.68359375 28.33203125 C52.40503071 29.11679638 54.59216564 30.30134773 57.0625 31.6875 C58.01898438 32.21988281 58.97546875 32.75226563 59.9609375 33.30078125 C60.96382813 33.86152344 61.96671875 34.42226562 63 35 C65.06123443 36.1273171 67.1236767 37.25242945 69.1875 38.375 C70.775625 39.24125 72.36375 40.1075 74 41 C74 44.96 74 48.92 74 53 C63.53659435 50.90731887 54.33609735 44.54950294 45.17333984 39.25146484 C37.82838681 35.02205244 30.44209316 30.8647746 23.05175781 26.71533203 C20.99727982 25.56055104 18.94457449 24.40261124 16.89355469 23.24169922 C13.89328218 21.54616109 10.88529947 19.86515684 7.875 18.1875 C6.49828125 17.40487793 6.49828125 17.40487793 5.09375 16.60644531 C4.23523438 16.13174805 3.37671875 15.65705078 2.4921875 15.16796875 C1.74308105 14.74797607 0.99397461 14.3279834 0.22216797 13.89526367 C-2.38877985 12.84336896 -4.20675866 12.73227449 -7 13 C-9.44705651 14.16470478 -11.68454272 15.36492548 -14 16.75 C-14.68280029 17.14614502 -15.36560059 17.54229004 -16.0690918 17.95043945 C-17.56973671 18.82115102 -19.06791886 19.69611714 -20.56396484 20.57470703 C-24.96024702 23.14691543 -29.38890633 25.66265732 -33.8125 28.1875 C-34.71242676 28.70280273 -35.61235352 29.21810547 -36.53955078 29.74902344 C-41.93940447 32.83835801 -47.35571345 35.88269595 -52.83984375 38.8203125 C-54.90986783 39.95077773 -56.9202301 41.15368837 -58.9375 42.375 C-62 44 -62 44 -66 44 C-66.82561612 39.76607117 -67.07937085 36.20386541 -66 32 C-62.17061437 28.3339531 -57.74287604 26.24797921 -53 24 C-51.65035156 23.32517578 -51.65035156 23.32517578 -50.2734375 22.63671875 C-48.42131543 21.71065771 -46.56264365 20.79763304 -44.69921875 19.89453125 C-38.5109752 16.79951548 -32.54379744 13.27162968 -26.53564453 9.8449707 C-24.64131424 8.76483596 -22.74386042 7.6901601 -20.84326172 6.62109375 C-18.90646108 5.51682136 -16.98651361 4.382579 -15.08251953 3.22265625 C-6.10531864 -2.08672123 -6.10531864 -2.08672123 0 0 Z " fill="#1DC5D7" transform="translate(258,134)"/>
<path d="M0 0 C2.84570312 1.28759766 2.84570312 1.28759766 5.78125 2.9140625 C6.86446533 3.50719238 7.94768066 4.10032227 9.0637207 4.71142578 C10.19769287 5.34290527 11.33166504 5.97438477 12.5 6.625 C14.83515783 7.91008121 17.17351592 9.18920484 19.51171875 10.46875 C20.6311084 11.08234375 21.75049805 11.6959375 22.90380859 12.328125 C27.65389807 14.89306844 32.48571385 17.25955714 37.36328125 19.5703125 C42.77977391 22.50725519 42.77977391 22.50725519 45 25 C45.60809237 28.27130114 45.47151871 31.43751791 45.3125 34.75 C45.28994141 35.63816406 45.26738281 36.52632812 45.24414062 37.44140625 C45.18532552 39.62932812 45.10321268 41.81379671 45 44 C43.28133783 45.0384211 41.54955402 46.05514635 39.8125 47.0625 C38.84957031 47.63097656 37.88664062 48.19945312 36.89453125 48.78515625 C34 50 34 50 29 49 C29 44.71 29 40.42 29 36 C27.18113281 35.02417969 25.36226563 34.04835937 23.48828125 33.04296875 C21.71422725 32.08984954 19.94017797 31.13672153 18.16625977 30.18334961 C16.93960601 29.52438469 15.71272137 28.86584937 14.4855957 28.20776367 C12.71504063 27.25814806 10.94540184 26.30682466 9.17578125 25.35546875 C8.11270752 24.78465576 7.04963379 24.21384277 5.9543457 23.62573242 C4.02789659 22.56563618 2.12929097 21.45277275 0.26757812 20.28271484 C-1.92318252 18.77675762 -1.92318252 18.77675762 -4.45703125 19.12109375 C-7.42150788 20.14568245 -9.97125043 21.49500536 -12.6875 23.0625 C-17.79529412 26 -17.79529412 26 -20 26 C-21.52808876 8.85144837 -21.52808876 8.85144837 -17.9140625 4.47265625 C-15.30443692 2.96886907 -12.85903926 1.9313537 -10 1 C-9.35546875 0.60941406 -8.7109375 0.21882812 -8.046875 -0.18359375 C-5.07348937 -1.36954336 -3.0995648 -0.7028083 0 0 Z " fill="#1DAACC" transform="translate(258,167)"/>
<path d="M0 0 C0 32.01 0 64.02 0 97 C-4.37602073 95.54132642 -7.32843123 94.51764715 -11 92 C-12.56320063 88.87359875 -12.1561724 85.54222786 -12.16113281 82.10961914 C-12.16609772 81.29484604 -12.17106262 80.48007294 -12.17617798 79.64060974 C-12.1908123 76.9387834 -12.19760316 74.23701575 -12.203125 71.53515625 C-12.20887473 69.66190081 -12.21463248 67.7886454 -12.22039795 65.91539001 C-12.23091109 61.98533859 -12.23675193 58.05530765 -12.24023438 54.12524414 C-12.24572446 49.08320805 -12.26976211 44.04144129 -12.29820633 38.99948978 C-12.3168049 35.12966616 -12.32203679 31.25990781 -12.32357025 27.39004326 C-12.32660283 25.53085289 -12.33465165 23.67166383 -12.34775543 21.81251717 C-12.36476053 19.21472628 -12.3629496 16.61759894 -12.35644531 14.01977539 C-12.3656601 13.24824127 -12.37487488 12.47670715 -12.3843689 11.68179321 C-12.34351477 6.48788946 -12.34351477 6.48788946 -10.66522217 4.10423279 C-7.17021663 1.78664431 -4.24591932 0 0 0 Z " fill="#1ECADB" transform="translate(187,170)"/>
<path d="M0 0 C0.33 0.66 0.66 1.32 1 2 C3.31 2.33 5.62 2.66 8 3 C8 7.95 8 12.9 8 18 C6.02 18.66 4.04 19.32 2 20 C0.61108001 22.77783999 0.80053286 25.14573141 0.71875 28.25 C0.68136719 29.4978125 0.64398438 30.745625 0.60546875 32.03125 C0.57066406 33.3409375 0.53585938 34.650625 0.5 36 C0.43134532 38.58345011 0.35863935 41.16679679 0.28125 43.75 C0.23581055 45.47476563 0.23581055 45.47476563 0.18945312 47.234375 C0 50 0 50 -1 52 C-1.66 52 -2.32 52 -3 52 C-3.495 54.475 -3.495 54.475 -4 57 C-2.35 57 -0.7 57 1 57 C1 57.66 1 58.32 1 59 C2.32 59 3.64 59 5 59 C5.12375 59.639375 5.2475 60.27875 5.375 60.9375 C5.58125 61.618125 5.7875 62.29875 6 63 C6.66 63.33 7.32 63.66 8 64 C7.67 65.98 7.34 67.96 7 70 C5.88625 69.7215625 5.88625 69.7215625 4.75 69.4375 C2.05009037 69.00796892 0.55368923 69.14877026 -2 70 C-2 69.34 -2 68.68 -2 68 C-3.32 68 -4.64 68 -6 68 C-6.33 67.34 -6.66 66.68 -7 66 C-7.99 65.67 -8.98 65.34 -10 65 C-10 64.34 -10 63.68 -10 63 C-10.66 62.67 -11.32 62.34 -12 62 C-12 61.01 -12 60.02 -12 59 C-12.16265854 58.3689032 -12.32531708 57.7378064 -12.49290466 57.08758545 C-13.0374878 54.84567204 -13.12030443 52.90350487 -13.11352539 50.59863281 C-13.11344986 49.7380426 -13.11337433 48.87745239 -13.11329651 47.99078369 C-13.10813522 47.07085632 -13.10297394 46.15092896 -13.09765625 45.203125 C-13.0962413 44.25435486 -13.09482635 43.30558472 -13.09336853 42.32806396 C-13.08777742 39.30201038 -13.07522652 36.27603117 -13.0625 33.25 C-13.05748385 31.19661565 -13.05292115 29.14323014 -13.04882812 27.08984375 C-13.03781089 22.05986724 -13.02055233 17.02994622 -13 12 C-12.01 11.67 -11.02 11.34 -10 11 C-9.91363281 10.30132812 -9.82726562 9.60265625 -9.73828125 8.8828125 C-9.31851871 6.16398355 -8.84827735 3.61840712 -8 1 C-4.74949001 -1.25035307 -3.75087172 -1.25029057 0 0 Z " fill="#1DB7D3" transform="translate(219,181)"/>
<path d="M0 0 C3.73306703 0.46341522 6.51026739 1.63008722 9.75 3.5 C10.52859375 3.9434375 11.3071875 4.386875 12.109375 4.84375 C14 6 14 6 15 7 C15.04080783 8.99958364 15.04254356 11.00045254 15 13 C15.763125 13.061875 16.52625 13.12375 17.3125 13.1875 C20 14 20 14 21.9375 16.1875 C23 19 23 19 22.5625 22.1875 C21 25 21 25 17.875 26.375 C16.92625 26.58125 15.9775 26.7875 15 27 C15.226875 28.216875 15.45375 29.43375 15.6875 30.6875 C16.05992457 33.73706347 16.02881088 34.9263722 14.875 37.875 C12.66373555 40.38109971 11.24530021 41.22730947 8 42 C4.1803285 41.72051184 1.80860018 40.60055572 -1 38 C-1 37.34 -1 36.68 -1 36 C-1.69480469 36.08894531 -2.38960938 36.17789063 -3.10546875 36.26953125 C-7.00215642 35.90668179 -9.32839915 34.02619386 -12.3125 31.6875 C-13.13717773 31.08131836 -13.13717773 31.08131836 -13.97851562 30.46289062 C-15.55078125 29.26171875 -15.55078125 29.26171875 -18 27 C-18 26.01 -18 25.02 -18 24 C-15.91706723 22.8742531 -13.83367092 21.74937917 -11.75 20.625 C-10.58984375 19.99851563 -9.4296875 19.37203125 -8.234375 18.7265625 C-5.83763374 17.44714265 -3.43911709 16.19540887 -1 15 C-1.01160156 14.00097656 -1.02320313 13.00195312 -1.03515625 11.97265625 C-1.04417969 10.68230469 -1.05320312 9.39195312 -1.0625 8.0625 C-1.07410156 6.77472656 -1.08570313 5.48695313 -1.09765625 4.16015625 C-1 1 -1 1 0 0 Z " fill="#1A8BC5" transform="translate(288,222)"/>
<path d="M0 0 C5.97394804 1.65279229 11.11638496 4.63568537 16.5 7.625 C17.47815674 8.16334473 18.45631348 8.70168945 19.46411133 9.25634766 C25.99166756 12.85831463 32.47985605 16.52443618 38.9375 20.25 C42.85525419 22.48871668 46.81732618 24.63958437 50.79296875 26.7734375 C53 28 53 28 56 30 C59.85553162 29.67294022 62.46593263 28.31606304 65.6875 26.25 C78.97916667 18 78.97916667 18 83 18 C83 20 83 20 81.87109375 21.46875 C79.44399189 23.45502125 76.98497706 24.37291367 74.0625 25.5 C70.24311369 26.97664006 67.18934518 28.43296607 64 31 C62.68163705 31.69580267 61.35208914 32.37224433 60 33 C60.495 35.475 60.495 35.475 61 38 C62.32 38 63.64 38 65 38 C65 38.99 65 39.98 65 41 C62.26391415 43.25324717 60.76102257 44.05927297 57.19140625 43.78125 C53.65449818 42.91542183 51.18359172 41.6234422 48.0625 39.75 C46.83135079 39.02368486 45.59952852 38.29850989 44.3671875 37.57421875 C43.68237305 37.16864746 42.99755859 36.76307617 42.29199219 36.34521484 C37.7860028 33.70056194 33.23422249 31.13625036 28.6875 28.5625 C27.70579834 28.00264404 26.72409668 27.44278809 25.71264648 26.8659668 C21.116754 24.25875821 16.51399751 21.71831094 11.77734375 19.375 C10.98690674 18.97982178 10.19646973 18.58464355 9.38208008 18.17749023 C7.91864656 17.45455882 6.44609306 16.74969514 4.96362305 16.06665039 C3.0078125 15.09765625 3.0078125 15.09765625 0 13 C-1.46079887 8.4768035 -0.83441459 4.63563662 0 0 Z " fill="#1A88BE" transform="translate(196,260)"/>
<path d="M0 0 C3.63351867 0.06465336 5.28909211 0.83675861 7.875 3.375 C9.07319055 4.72261847 10.23686171 6.10129441 11.375 7.5 C12.10589844 8.38816406 12.83679688 9.27632813 13.58984375 10.19140625 C15.5445935 12.60650128 17.46281713 15.05106405 19.375 17.5 C19.705 11.89 20.035 6.28 20.375 0.5 C23.015 0.5 25.655 0.5 28.375 0.5 C29.375 1.5 29.375 1.5 29.48852539 4.55102539 C29.48836634 5.89991271 29.48267612 7.24880614 29.47265625 8.59765625 C29.4712413 9.30651474 29.46982635 10.01537323 29.46836853 10.74571228 C29.46275443 13.01801712 29.45019963 15.29022475 29.4375 17.5625 C29.43248681 19.09960796 29.42792359 20.63671745 29.42382812 22.17382812 C29.41278042 25.94925642 29.39550641 29.72461171 29.375 33.5 C26.405 33.5 23.435 33.5 20.375 33.5 C20.375 32.84 20.375 32.18 20.375 31.5 C19.715 31.5 19.055 31.5 18.375 31.5 C14.375 27.02941176 14.375 27.02941176 14.375 24.5 C13.715 24.5 13.055 24.5 12.375 24.5 C12.375 23.84 12.375 23.18 12.375 22.5 C11.715 22.5 11.055 22.5 10.375 22.5 C9.055 20.85 7.735 19.2 6.375 17.5 C6.045 22.78 5.715 28.06 5.375 33.5 C1.68081799 34.731394 -0.8306261 34.14432764 -4.625 33.5 C-4.64965392 28.96102295 -4.66783789 24.42208457 -4.67993164 19.88305664 C-4.6849714 18.33780234 -4.6918032 16.79255284 -4.70043945 15.24731445 C-4.71252076 13.03074971 -4.71823173 10.81424782 -4.72265625 8.59765625 C-4.72781754 7.9028566 -4.73297882 7.20805695 -4.73829651 6.49220276 C-4.73849277 4.8277067 -4.68689129 3.16334501 -4.625 1.5 C-3.625 0.5 -3.625 0.5 0 0 Z " fill="#1980BE" transform="translate(173.625,319.5)"/>
<path d="M0 0 C4.53884294 3.78236912 7.38487616 6.21235787 8.625 12.1875 C8.54963219 17.0026658 7.96860551 20.94211624 5.625 25.1875 C4.965 25.1875 4.305 25.1875 3.625 25.1875 C3.625 25.8475 3.625 26.5075 3.625 27.1875 C2.965 27.1875 2.305 27.1875 1.625 27.1875 C1.625 27.8475 1.625 28.5075 1.625 29.1875 C-3.71724984 32.29849991 -10.47614318 32.69421063 -16.5390625 31.90625 C-21.49238738 30.59700113 -25.13801544 28.45791657 -28.6875 24.8125 C-31.25805942 19.29055754 -31.47372016 14.1613361 -30.375 8.1875 C-27.7324093 3.48556069 -24.31873278 0.32911704 -19.375 -1.8125 C-12.80591728 -3.53297405 -5.98967038 -3.21667483 0 0 Z M-20.375 10.1875 C-21.09210709 13.33806884 -21.06529912 16.03345035 -20.375 19.1875 C-18.4985883 22.39763047 -18.4985883 22.39763047 -15.375 24.1875 C-10.93563058 24.91394227 -8.94281317 24.50295176 -5 22.3125 C-1.9536086 19.84637363 -1.48807823 19.20520406 -1.0625 15.375 C-1.44664358 11.4567355 -2.66756317 9.97456733 -5.375 7.1875 C-10.77054179 4.4897291 -16.72054071 5.50522404 -20.375 10.1875 Z " fill="#1C80BA" transform="translate(239.375,321.8125)"/>
<path d="M0 0 C2.375 -0.125 2.375 -0.125 5 0 C5.66 0.66 6.32 1.32 7 2 C8.98356483 2.71408334 10.98315437 3.38617742 13 4 C13 4.66 13 5.32 13 6 C14.98 6 16.96 6 19 6 C19.33 7.32 19.66 8.64 20 10 C22.41168893 9.58419156 23.69216469 9.33582033 25.375 7.5 C27.81176718 5.25067645 29.71986435 5.19501401 33 5 C36.10546875 6.3984375 36.10546875 6.3984375 39.1875 8.375 C43.41105094 11.07104046 43.41105094 11.07104046 48 13 C48 13.66 48 14.32 48 15 C48.55558594 15.10957031 49.11117187 15.21914062 49.68359375 15.33203125 C52.40503071 16.11679638 54.59216564 17.30134773 57.0625 18.6875 C58.01898438 19.21988281 58.97546875 19.75226563 59.9609375 20.30078125 C61.46527344 21.14189453 61.46527344 21.14189453 63 22 C65.06123443 23.1273171 67.1236767 24.25242945 69.1875 25.375 C70.775625 26.24125 72.36375 27.1075 74 28 C74 31.96 74 35.92 74 40 C64.23463738 38.04692748 55.69847865 32.33732106 47.14453125 27.390625 C42.07270271 24.45782343 36.97450075 21.57184446 31.875 18.6875 C30.41441162 17.86137207 30.41441162 17.86137207 28.92431641 17.01855469 C19.3257497 11.60090061 9.67289791 6.28356963 0 1 C0 0.67 0 0.34 0 0 Z " fill="#20A2BF" transform="translate(258,147)"/>
<path d="M0 0 C0.90492188 0.02320313 1.80984375 0.04640625 2.7421875 0.0703125 C3.65226562 0.08835937 4.56234375 0.10640625 5.5 0.125 C6.19867188 0.14820313 6.89734375 0.17140625 7.6171875 0.1953125 C8.11347656 1.18789063 8.60976563 2.18046875 9.12109375 3.203125 C9.60932617 4.17922729 9.60932617 4.17922729 10.10742188 5.17504883 C10.826952 6.61460057 11.54569211 8.05454743 12.26367188 9.49487305 C14.06006077 13.09596745 15.86634173 16.69085163 17.70703125 20.26953125 C18.02921631 20.90036621 18.35140137 21.53120117 18.68334961 22.18115234 C19.57409976 23.92352949 20.47050185 25.66301377 21.3671875 27.40234375 C22.6171875 30.1953125 22.6171875 30.1953125 22.6171875 33.1953125 C19.24032036 33.48041385 15.98240176 33.65796061 12.6171875 33.1953125 C11.59852521 31.53998627 10.59907937 29.87271112 9.6171875 28.1953125 C6.29893357 27.42413074 3.01621339 27.26546125 -0.3828125 27.1953125 C0.16442433 23.82068535 0.6720875 22.1129625 2.6171875 19.1953125 C3.6071875 19.1953125 4.5971875 19.1953125 5.6171875 19.1953125 C4.6271875 17.2153125 3.6371875 15.2353125 2.6171875 13.1953125 C-0.06493242 15.53454777 -1.15886388 17.68785188 -2.3828125 21.0078125 C-6.20063165 31.01313165 -6.20063165 31.01313165 -8.3828125 33.1953125 C-10.06890216 33.26736761 -11.75781909 33.27917318 -13.4453125 33.2578125 C-14.36441406 33.24878906 -15.28351563 33.23976563 -16.23046875 33.23046875 C-16.94074219 33.21886719 -17.65101563 33.20726562 -18.3828125 33.1953125 C-16.31573428 26.64062695 -13.36342295 20.6244554 -10.3828125 14.4453125 C-9.83625 13.29675781 -9.2896875 12.14820313 -8.7265625 10.96484375 C-8.200625 9.87042969 -7.6746875 8.77601563 -7.1328125 7.6484375 C-6.65328125 6.64973633 -6.17375 5.65103516 -5.6796875 4.62207031 C-3.35665775 0.27513588 -3.35665775 0.27513588 0 0 Z " fill="#1CADC5" transform="translate(307.3828125,319.8046875)"/>
<path d="M0 0 C1.23556641 0.01740234 1.23556641 0.01740234 2.49609375 0.03515625 C3.32238281 0.04417969 4.14867187 0.05320312 5 0.0625 C5.63808594 0.07410156 6.27617187 0.08570313 6.93359375 0.09765625 C10.81263582 6.51299507 13.85333203 13.26974277 16.93359375 20.09765625 C20.0407872 16.37294486 22.00645673 12.17635265 24.12109375 7.84765625 C24.67313477 6.73003906 24.67313477 6.73003906 25.23632812 5.58984375 C26.13906955 3.76091308 27.03682995 1.92952529 27.93359375 0.09765625 C30.90359375 0.09765625 33.87359375 0.09765625 36.93359375 0.09765625 C37.93359375 3.09765625 37.93359375 3.09765625 36.52734375 6.3984375 C35.83930557 7.7407865 35.14068898 9.07774726 34.43359375 10.41015625 C33.69381213 11.84364769 32.95423303 13.27724365 32.21484375 14.7109375 C31.64636719 15.80075928 31.64636719 15.80075928 31.06640625 16.91259766 C29.31638113 20.28818491 27.62598419 23.69291794 25.93359375 27.09765625 C24.93359375 29.09765625 23.93359375 31.09765625 22.93359375 33.09765625 C19.30359375 33.09765625 15.67359375 33.09765625 11.93359375 33.09765625 C9.95292857 29.18585205 7.97758573 25.27142007 6.00708008 21.35449219 C5.33632867 20.02303201 4.6641414 18.69229415 3.99047852 17.36230469 C3.02109278 15.44785729 2.0569409 13.53085133 1.09375 11.61328125 C0.51246338 10.46118164 -0.06882324 9.30908203 -0.66772461 8.12207031 C-1.77577574 5.7260959 -2.68916227 3.69960351 -3.06640625 1.09765625 C-2.06640625 0.09765625 -2.06640625 0.09765625 0 0 Z " fill="#19B7D2" transform="translate(252.06640625,319.90234375)"/>
<path d="M0 0 C0 6.6 0 13.2 0 20 C-2.31 21.32 -4.62 22.64 -7 24 C-7 34.56 -7 45.12 -7 56 C-1.72 58.97 3.56 61.94 9 65 C9 65.66 9 66.32 9 67 C9.70125 67.103125 10.4025 67.20625 11.125 67.3125 C14.39137647 68.09359003 17.0471852 69.42058743 20 71 C20 71.33 20 71.66 20 72 C13.25 71.125 13.25 71.125 11 70 C11.495 77.425 11.495 77.425 12 85 C11.01 84.67 10.02 84.34 9 84 C9 78.72 9 73.44 9 68 C7.411875 68.78375 5.82375 69.5675 4.1875 70.375 C3.29417969 70.81585938 2.40085938 71.25671875 1.48046875 71.7109375 C-1.14556381 73.01866905 -1.14556381 73.01866905 -4 75 C-8.91900819 74.71473927 -12.53677984 72.91292446 -16.8125 70.5625 C-17.95332031 69.94503906 -19.09414062 69.32757813 -20.26953125 68.69140625 C-23 67 -23 67 -24 65 C-24.10549969 63.35153873 -24.14874283 61.69890642 -24.16113281 60.04711914 C-24.17074036 59.01587418 -24.1803479 57.98462921 -24.19024658 56.9221344 C-24.19449646 55.80443161 -24.19874634 54.68672882 -24.203125 53.53515625 C-24.20882507 52.39090683 -24.21452515 51.24665741 -24.22039795 50.06773376 C-24.22985619 47.64420499 -24.23638519 45.22066331 -24.24023438 42.79711914 C-24.2499508 39.08131628 -24.28097158 35.36606383 -24.3125 31.65039062 C-24.31902872 29.29948246 -24.3242797 26.94857033 -24.328125 24.59765625 C-24.3404718 23.48197769 -24.3528186 22.36629913 -24.36553955 21.21681213 C-24.36253845 20.18241501 -24.35953735 19.14801788 -24.35644531 18.08227539 C-24.36009094 17.17119522 -24.36373657 16.26011505 -24.36749268 15.32142639 C-23.92939569 12.55399734 -23.23225671 11.64677706 -21 10 C-20.34 10 -19.68 10 -19 10 C-18.67 8.68 -18.34 7.36 -18 6 C-18 7.98 -18 9.96 -18 12 C-19.32 12.33 -20.64 12.66 -22 13 C-21.90622959 19.01426653 -21.80008273 25.02814169 -21.68261719 31.04199219 C-21.64440761 33.08652819 -21.6095409 35.13112957 -21.578125 37.17578125 C-21.53230013 40.12002886 -21.4743344 43.06382948 -21.4140625 46.0078125 C-21.39673569 47.3722197 -21.39673569 47.3722197 -21.37905884 48.76419067 C-21.26787724 53.57881038 -20.76979126 57.45709221 -19 62 C-19 62.66 -19 63.32 -19 64 C-18.67 64.66 -18.34 65.32 -18 66 C-17.01 66 -16.02 66 -15 66 C-15 66.99 -15 67.98 -15 69 C-13.68 69 -12.36 69 -11 69 C-11 69.66 -11 70.32 -11 71 C-10.01 71 -9.02 71 -8 71 C-7.67 70.34 -7.34 69.68 -7 69 C-6.01 69 -5.02 69 -4 69 C-4 69.66 -4 70.32 -4 71 C-3.34 71 -2.68 71 -2 71 C-1.67 69.02 -1.34 67.04 -1 65 C-2.485 64.505 -2.485 64.505 -4 64 C-4 62.68 -4 61.36 -4 60 C-7.3 59.67 -10.6 59.34 -14 59 C-13.34 57.02 -12.68 55.04 -12 53 C-11.34 53 -10.68 53 -10 53 C-9.98018066 52.10692139 -9.96036133 51.21384277 -9.93994141 50.29370117 C-9.86181302 46.97799292 -9.77512029 43.66273838 -9.68261719 40.34741211 C-9.64435134 38.91292932 -9.60949419 37.47835135 -9.578125 36.04370117 C-9.53242138 33.98061122 -9.47443807 31.91817505 -9.4140625 29.85546875 C-9.3826416 28.61434326 -9.3512207 27.37321777 -9.31884766 26.09448242 C-9 23 -9 23 -7 20 C-5.02 19.67 -3.04 19.34 -1 19 C-1 14.05 -1 9.1 -1 4 C-3.31 4 -5.62 4 -8 4 C-8 3.01 -8 2.02 -8 1 C-2.25 0 -2.25 0 0 0 Z " fill="#24A3C4" transform="translate(228,180)"/>
<path d="M0 0 C0 1.65 0 3.3 0 5 C0.66 5.33 1.32 5.66 2 6 C-1.42094242 8.28062828 -2.68187222 8.21925007 -6.6875 8.125 C-8.17830078 8.09792969 -8.17830078 8.09792969 -9.69921875 8.0703125 C-10.45847656 8.04710937 -11.21773437 8.02390625 -12 8 C-12 8.66 -12 9.32 -12 10 C-13.32 10 -14.64 10 -16 10 C-16 10.66 -16 11.32 -16 12 C-18.31 12.33 -20.62 12.66 -23 13 C-23 14.32 -23 15.64 -23 17 C-24.9375 17.5625 -24.9375 17.5625 -27 18 C-27.33 17.67 -27.66 17.34 -28 17 C-28.33 17.99 -28.66 18.98 -29 20 C-29.99 20 -30.98 20 -32 20 C-32 20.66 -32 21.32 -32 22 C-32.66 22 -33.32 22 -34 22 C-34.66 21.01 -35.32 20.02 -36 19 C-36.33 19.66 -36.66 20.32 -37 21 C-37.99 21 -38.98 21 -40 21 C-40 22.65 -40 24.3 -40 26 C-40.99 26 -41.98 26 -43 26 C-43 26.66 -43 27.32 -43 28 C-45.9375 27.1875 -45.9375 27.1875 -49 26 C-50 23 -50 23 -49 20 C-48.34 20 -47.68 20 -47 20 C-46.67 19.01 -46.34 18.02 -46 17 C-43.64257812 15.421875 -43.64257812 15.421875 -40.53125 13.75 C-39.40203125 13.1415625 -38.2728125 12.533125 -37.109375 11.90625 C-36.51576172 11.59300781 -35.92214844 11.27976563 -35.31054688 10.95703125 C-33.52851076 10.01507041 -31.7563288 9.05454273 -29.984375 8.09375 C-23.74807802 4.76396247 -17.7701629 2.0262081 -11 0 C-10.113125 -0.433125 -9.22625 -0.86625 -8.3125 -1.3125 C-5.05922143 -2.27969093 -3.05744033 -1.27985874 0 0 Z " fill="#1BCDDB" transform="translate(259,137)"/>
<path d="M0 0 C6.21204607 1.93560868 11.61814043 4.83383415 17.3125 7.9375 C18.83327148 8.74477539 18.83327148 8.74477539 20.38476562 9.56835938 C21.34705078 10.09107422 22.30933594 10.61378906 23.30078125 11.15234375 C24.17903564 11.62663818 25.05729004 12.10093262 25.9621582 12.58959961 C28 14 28 14 29 17 C29.99 17.33 30.98 17.66 32 18 C32.66 18.99 33.32 19.98 34 21 C34.99 21.66 35.98 22.32 37 23 C36.01 23.33 35.02 23.66 34 24 C32.79117904 26.00016466 32.79117904 26.00016466 32 28 C30.68 27.67 29.36 27.34 28 27 C28 26.34 28 25.68 28 25 C27.05125 24.7525 26.1025 24.505 25.125 24.25 C22 23 22 23 21.12109375 20.94921875 C20.75113281 20.30597656 20.38117188 19.66273438 20 19 C17.6477212 18.48066047 17.6477212 18.48066047 14.9375 18.5625 C9.07757979 18.22279448 4.51194612 16.87484261 0 13 C-1.72144994 8.60073905 -0.82539165 4.58550916 0 0 Z " fill="#1D99C5" transform="translate(196,260)"/>
<path d="M0 0 C0 32.01 0 64.02 0 97 C-4.37602073 95.54132642 -7.32843123 94.51764715 -11 92 C-12.56320063 88.87359875 -12.1561724 85.54222786 -12.16113281 82.10961914 C-12.16609772 81.29484604 -12.17106262 80.48007294 -12.17617798 79.64060974 C-12.1908123 76.9387834 -12.19760316 74.23701575 -12.203125 71.53515625 C-12.20887473 69.66190081 -12.21463248 67.7886454 -12.22039795 65.91539001 C-12.23091109 61.98533859 -12.23675193 58.05530765 -12.24023438 54.12524414 C-12.24572446 49.08320805 -12.26976211 44.04144129 -12.29820633 38.99948978 C-12.3168049 35.12966616 -12.32203679 31.25990781 -12.32357025 27.39004326 C-12.32660283 25.53085289 -12.33465165 23.67166383 -12.34775543 21.81251717 C-12.36476053 19.21472628 -12.3629496 16.61759894 -12.35644531 14.01977539 C-12.3656601 13.24824127 -12.37487488 12.47670715 -12.3843689 11.68179321 C-12.34351477 6.48788946 -12.34351477 6.48788946 -10.66522217 4.10423279 C-7.17021663 1.78664431 -4.24591932 0 0 0 Z M-6 3 C-6.33 3.66 -6.66 4.32 -7 5 C-7.99 5.33 -8.98 5.66 -10 6 C-10.02313695 16.26577464 -10.04092201 26.53154311 -10.05181217 36.79733849 C-10.05703803 41.5637949 -10.06413031 46.33023352 -10.07543945 51.09667969 C-10.08627885 55.6937439 -10.09227908 60.29079097 -10.09487724 64.88786697 C-10.09672958 66.64460139 -10.10034657 68.40133484 -10.10573006 70.15806198 C-10.11295443 72.61239424 -10.11399035 75.06665497 -10.11352539 77.52099609 C-10.11712067 78.25251389 -10.12071594 78.98403168 -10.12442017 79.73771667 C-10.17586897 83.49400165 -10.17586897 83.49400165 -9 87 C-7.00045254 87.04254356 -4.99958364 87.04080783 -3 87 C-1.44044316 85.44044316 -1.78412722 83.8743076 -1.68798828 81.70263672 C-1.64664764 80.77734161 -1.60530701 79.85204651 -1.56271362 78.89871216 C-1.52397125 77.87768402 -1.48522888 76.85665588 -1.4453125 75.8046875 C-1.38224411 74.20655716 -1.38224411 74.20655716 -1.31790161 72.57614136 C-0.87989922 60.36802005 -0.8491186 48.16096524 -0.86962891 35.94628906 C-0.87510163 32.05269672 -0.86958627 28.15921437 -0.86328125 24.265625 C-0.86394027 21.78385391 -0.86521776 19.30208289 -0.8671875 16.8203125 C-0.86516327 15.65911896 -0.86313904 14.49792542 -0.86105347 13.30154419 C-0.86578171 11.70619339 -0.86578171 11.70619339 -0.87060547 10.07861328 C-0.87140106 9.14284454 -0.87219666 8.20707581 -0.87301636 7.24295044 C-0.8536179 4.96281255 -0.8536179 4.96281255 -2 3 C-3.32 3 -4.64 3 -6 3 Z " fill="#23ACC2" transform="translate(187,170)"/>
<path d="M0 0 C0.33 0.66 0.66 1.32 1 2 C0.34 2 -0.32 2 -1 2 C-1 3.65 -1 5.3 -1 7 C0.98 7.99 2.96 8.98 5 10 C5 9.34 5 8.68 5 8 C5.99 8 6.98 8 8 8 C8 6.35 8 4.7 8 3 C8.99 3 9.98 3 11 3 C11.33 2.01 11.66 1.02 12 0 C12.66 0.33 13.32 0.66 14 1 C14.125 3.625 14.125 3.625 13 7 C9.92354354 9.45864348 6.48400917 11.18511803 3 13 C1.10335122 14.04018118 -0.79249386 15.08182926 -2.6875 16.125 C-3.60015625 16.61484375 -4.5128125 17.1046875 -5.453125 17.609375 C-7.65395523 18.81105531 -9.79452831 20.07456419 -11.9375 21.375 C-15 23 -15 23 -19 23 C-19.82631444 18.76249005 -20.10584519 15.20221172 -19 11 C-15.08545122 7.39314501 -10.81663838 5.27665709 -6 3 C-4.86820313 2.43410156 -3.73640625 1.86820313 -2.5703125 1.28515625 C-1.72210938 0.86105469 -0.87390625 0.43695313 0 0 Z " fill="#1DCDD8" transform="translate(211,155)"/>
<path d="M0 0 C6.90666487 0.86074052 12.88665215 3.17884346 18 8 C19.02999813 12.17201261 18.74586916 15.7941267 18 20 C7.90822281 18.42487688 -2.68229056 11.72211217 -11 6 C-11 5.34 -11 4.68 -11 4 C-7 4 -3 4 1 4 C0.67 2.68 0.34 1.36 0 0 Z " fill="#1E99C4" transform="translate(314,167)"/>
<path d="M0 0 C2.69082872 0.17635452 5.32851446 0.61835921 8 1 C8 1.99 8 2.98 8 4 C9.32 4 10.64 4 12 4 C11.34 6.31 10.68 8.62 10 11 C8.68 11.33 7.36 11.66 6 12 C6 17.61 6 23.22 6 29 C3.69 29 1.38 29 -1 29 C-1.02465881 25.03069011 -1.04284023 21.06140966 -1.05493164 17.09204102 C-1.05997057 15.74079614 -1.06680177 14.38955674 -1.07543945 13.03833008 C-1.08752419 11.09979566 -1.09269828 9.161222 -1.09765625 7.22265625 C-1.10289307 6.05484619 -1.10812988 4.88703613 -1.11352539 3.68383789 C-1 1 -1 1 0 0 Z " fill="#1787CD" transform="translate(172,323)"/>
<path d="M0 0 C0.5534764 2.07553648 1 3.84365964 1 6 C1.66 6 2.32 6 3 6 C2.67 7.65 2.34 9.3 2 11 C0.68 10.67 -0.64 10.34 -2 10 C-2.36256858 11.4562672 -2.71479793 12.91511185 -3.0625 14.375 C-3.25972656 15.18710937 -3.45695312 15.99921875 -3.66015625 16.8359375 C-4.22109319 19.04161284 -4.22109319 19.04161284 -3 21 C-2.67 20.34 -2.34 19.68 -2 19 C-1.34 19 -0.68 19 0 19 C0 18.01 0 17.02 0 16 C0.66 16 1.32 16 2 16 C2.33 14.02 2.66 12.04 3 10 C3.99 9.67 4.98 9.34 6 9 C0.85714286 26.14285714 0.85714286 26.14285714 -4 31 C-5.68608966 31.07205511 -7.37500659 31.08386068 -9.0625 31.0625 C-9.98160156 31.05347656 -10.90070313 31.04445313 -11.84765625 31.03515625 C-12.55792969 31.02355469 -13.26820313 31.01195312 -14 31 C-12.68106727 26.80240081 -11.09759162 22.90354015 -9.1796875 18.9453125 C-8.37724609 17.28242188 -8.37724609 17.28242188 -7.55859375 15.5859375 C-7.00300781 14.44382812 -6.44742187 13.30171875 -5.875 12.125 C-5.31167969 10.9596875 -4.74835938 9.794375 -4.16796875 8.59375 C-2.78187239 5.72758466 -1.39245478 2.86308022 0 0 Z " fill="#1AA9C0" transform="translate(303,322)"/>
<path d="M0 0 C0 0.66 0 1.32 0 2 C0.66 2.33 1.32 2.66 2 3 C-0.31 3.33 -2.62 3.66 -5 4 C-5 5.32 -5 6.64 -5 8 C-6.9375 8.5625 -6.9375 8.5625 -9 9 C-9.33 8.67 -9.66 8.34 -10 8 C-10.33 8.99 -10.66 9.98 -11 11 C-11.99 11 -12.98 11 -14 11 C-14 11.66 -14 12.32 -14 13 C-14.66 13 -15.32 13 -16 13 C-16.66 12.01 -17.32 11.02 -18 10 C-18.33 10.66 -18.66 11.32 -19 12 C-19.99 12 -20.98 12 -22 12 C-22 13.65 -22 15.3 -22 17 C-22.99 17 -23.98 17 -25 17 C-25 17.66 -25 18.32 -25 19 C-27.9375 18.1875 -27.9375 18.1875 -31 17 C-32 14 -32 14 -31 11 C-30.34 11 -29.68 11 -29 11 C-29 10.34 -29 9.68 -29 9 C-27.2984375 8.7834375 -27.2984375 8.7834375 -25.5625 8.5625 C-22.19222799 8.38828522 -22.19222799 8.38828522 -21 7 C-17.93518979 6.8386942 -15.94450722 7.01849759 -13 8 C-13.33 6.35 -13.66 4.7 -14 3 C-8.92560038 -1.18637969 -6.41419068 -1.32707393 0 0 Z " fill="#1CD2DE" transform="translate(241,146)"/>
<path d="M0 0 C3.77799901 0.04062365 5.44552983 0.99192758 8.125 3.625 C10.88209628 6.7227901 13.2180673 9.96263037 15.375 13.5 C14.611875 13.5825 13.84875 13.665 13.0625 13.75 C9.85126739 14.64615794 9.08125501 15.71611025 7.375 18.5 C7.045 18.17 6.715 17.84 6.375 17.5 C6.045 22.78 5.715 28.06 5.375 33.5 C1.68081799 34.731394 -0.8306261 34.14432764 -4.625 33.5 C-4.64965392 28.96102295 -4.66783789 24.42208457 -4.67993164 19.88305664 C-4.6849714 18.33780234 -4.6918032 16.79255284 -4.70043945 15.24731445 C-4.71252076 13.03074971 -4.71823173 10.81424782 -4.72265625 8.59765625 C-4.72781754 7.9028566 -4.73297882 7.20805695 -4.73829651 6.49220276 C-4.73849277 4.8277067 -4.68689129 3.16334501 -4.625 1.5 C-3.625 0.5 -3.625 0.5 0 0 Z M-1.625 3.5 C-2.93161495 4.58108449 -2.93161495 4.58108449 -2.73852539 7.18383789 C-2.73328857 8.35164795 -2.72805176 9.51945801 -2.72265625 10.72265625 C-2.71943359 11.98271484 -2.71621094 13.24277344 -2.71289062 14.54101562 C-2.70453403 15.88151109 -2.69606907 17.22200588 -2.6875 18.5625 C-2.6824866 19.90689942 -2.67792342 21.2513006 -2.67382812 22.59570312 C-2.66199488 25.89717941 -2.64550971 29.19856803 -2.625 32.5 C-0.315 32.5 1.995 32.5 4.375 32.5 C4.375 26.89 4.375 21.28 4.375 15.5 C5.695 15.17 7.015 14.84 8.375 14.5 C9.035 12.19 9.695 9.88 10.375 7.5 C9.055 7.5 7.735 7.5 6.375 7.5 C6.375 6.51 6.375 5.52 6.375 4.5 C2.38467159 3.89735687 2.38467159 3.89735687 -1.625 3.5 Z " fill="#1C628F" transform="translate(173.625,319.5)"/>
<path d="M0 0 C5.47932789 1.54545146 10.11429181 4.15543212 15 7 C14.34 8.32 13.68 9.64 13 11 C12.34 11 11.68 11 11 11 C11.33 11.99 11.66 12.98 12 14 C11.34 14 10.68 14 10 14 C10 14.66 10 15.32 10 16 C10.66 16.33 11.32 16.66 12 17 C9 18 9 18 6.7734375 17.21484375 C0.3002952 13.76742106 0.3002952 13.76742106 -1.125 10.125 C-0.98748149 6.68703722 -0.60948506 3.38602809 0 0 Z " fill="#1D91B5" transform="translate(196,260)"/>
<path d="M0 0 C0.71285156 0.433125 1.42570312 0.86625 2.16015625 1.3125 C2.16015625 1.9725 2.16015625 2.6325 2.16015625 3.3125 C0.18015625 3.6425 -1.79984375 3.9725 -3.83984375 4.3125 C-4.16984375 5.3025 -4.49984375 6.2925 -4.83984375 7.3125 C-6.15984375 7.3125 -7.47984375 7.3125 -8.83984375 7.3125 C-9.16984375 6.3225 -9.49984375 5.3325 -9.83984375 4.3125 C-11.26296875 4.4053125 -11.26296875 4.4053125 -12.71484375 4.5 C-13.74609375 4.438125 -14.77734375 4.37625 -15.83984375 4.3125 C-16.49984375 3.3225 -17.15984375 2.3325 -17.83984375 1.3125 C-20.39167779 0.10799696 -20.39167779 0.10799696 -22.83984375 -0.6875 C-21.83984375 -2.6875 -21.83984375 -2.6875 -19.21484375 -3.8125 C-11.22417071 -5.88415597 -6.93578825 -4.03265212 0 0 Z " fill="#20AEC7" transform="translate(286.83984375,149.6875)"/>
<path d="M0 0 C4.04591133 1.2231825 7.65177239 2.38291154 11 5 C11.60127258 7.82841492 11.60127258 7.82841492 11.56762695 11.30737305 C11.5672493 12.60849533 11.56687164 13.90961761 11.56648254 15.25016785 C11.54094909 16.67069451 11.5148691 18.09121143 11.48828125 19.51171875 C11.47895464 20.96473475 11.47183781 22.41776649 11.46684265 23.87080383 C11.44776018 27.69348637 11.3986506 31.51521754 11.34332275 35.33752441 C11.29215602 39.23855722 11.26933424 43.13974391 11.24414062 47.04101562 C11.19053136 54.69444394 11.10520564 62.34708863 11 70 C10.67 70 10.34 70 10 70 C10 48.88 10 27.76 10 6 C7.69 5.34 5.38 4.68 3 4 C2.01 3.34 1.02 2.68 0 2 C0 21.8 0 41.6 0 62 C-0.33 62 -0.66 62 -1 62 C-1.02312764 54.06386213 -1.04091723 46.12773824 -1.05181217 38.19157505 C-1.05704008 34.50685502 -1.06413605 30.82215797 -1.07543945 27.13745117 C-1.08627162 23.58429169 -1.09227753 20.03115437 -1.09487724 16.47797966 C-1.0967309 15.11954334 -1.10035038 13.76110829 -1.10573006 12.40268135 C-1.11294475 10.50617777 -1.11340809 8.60965207 -1.11352539 6.71313477 C-1.115746 5.63169693 -1.11796661 4.55025909 -1.12025452 3.43605042 C-1 1 -1 1 0 0 Z " fill="#075C73" transform="translate(321,192)"/>
<path d="M0 0 C0.7425 0.185625 1.485 0.37125 2.25 0.5625 C4.94990963 0.99203108 6.44631077 0.85122974 9 0 C9.33 0.99 9.66 1.98 10 3 C6.62902617 4.49821059 4.79557881 5 1 5 C1 5.99 1 6.98 1 8 C0.34 8 -0.32 8 -1 8 C-1 11.96 -1 15.92 -1 20 C-2.65 19.67 -4.3 19.34 -6 19 C-6.99 19.33 -7.98 19.66 -9 20 C-9.28323788 16.2927308 -9.45528702 12.69714999 -9 9 C-6.625 7.0625 -6.625 7.0625 -4 6 C-2.67206394 3.93299345 -2.67206394 3.93299345 -2 2 C-1.34 2 -0.68 2 0 2 C0 1.34 0 0.68 0 0 Z " fill="#1A8BCC" transform="translate(219,322)"/>
<path d="M0 0 C2.97 0 5.94 0 9 0 C9.6875 2.8125 9.6875 2.8125 10 6 C8.8125 7.8125 8.8125 7.8125 7 9 C6.319375 9.103125 5.63875 9.20625 4.9375 9.3125 C4.298125 9.539375 3.65875 9.76625 3 10 C1.6954344 12.99615946 1.6954344 12.99615946 1 16 C0.34 16 -0.32 16 -1 16 C-1 16.99 -1 17.98 -1 19 C-1.66 19 -2.32 19 -3 19 C-3 20.65 -3 22.3 -3 24 C-5 21 -5 21 -6 18 C-5.19767376 15.19185815 -4.30604232 12.61208464 -3 10 C-2.01 10 -1.02 10 0 10 C0.66 8.68 1.32 7.36 2 6 C1.01 6.33 0.02 6.66 -1 7 C-0.67 4.69 -0.34 2.38 0 0 Z " fill="#16BED5" transform="translate(304,322)"/>
<path d="M0 0 C0 32.01 0 64.02 0 97 C-6.75 94.75 -6.75 94.75 -9 92 C-6.36 92.33 -3.72 92.66 -1 93 C-1.33 63.3 -1.66 33.6 -2 3 C-3.32 2.67 -4.64 2.34 -6 2 C-3 0 -3 0 0 0 Z " fill="#32A6B9" transform="translate(187,170)"/>
<path d="M0 0 C2.97 0 5.94 0 9 0 C10 3 10 3 8.453125 6.58203125 C7.72880743 7.99737974 6.99396282 9.40737844 6.25 10.8125 C5.70859375 11.86147461 5.70859375 11.86147461 5.15625 12.93164062 C4.44582182 14.30745172 3.73171277 15.68136929 3.01367188 17.05322266 C1.64288806 19.6858407 0.31899627 22.34113727 -1 25 C-1.33 25 -1.66 25 -2 25 C-2 23.35 -2 21.7 -2 20 C-1.34 20 -0.68 20 0 20 C0.33 18.02 0.66 16.04 1 14 C0.34 13.67 -0.32 13.34 -1 13 C-1.125 6.375 -1.125 6.375 0 3 C0 2.01 0 1.02 0 0 Z " fill="#1ABBD5" transform="translate(280,320)"/>
<path d="M0 0 C0.66 0 1.32 0 2 0 C2 0.99 2 1.98 2 3 C2.78375 2.979375 3.5675 2.95875 4.375 2.9375 C7 3 7 3 9 4 C11.67979235 10.53571578 10.80103395 16.36388259 9 23 C8.01 22.34 7.02 21.68 6 21 C4.68 21 3.36 21 2 21 C2 20.34 2 19.68 2 19 C2.66 19 3.32 19 4 19 C3.67 14.38 3.34 9.76 3 5 C2.01 4.67 1.02 4.34 0 4 C0 2.68 0 1.36 0 0 Z " fill="#198ACA" transform="translate(235,323)"/>
<path d="M0 0 C0.33 0.99 0.66 1.98 1 3 C1.66 3 2.32 3 3 3 C3 2.34 3 1.68 3 1 C4.32 1 5.64 1 7 1 C7.08119503 3.24940295 7.13927819 5.49964871 7.1875 7.75 C7.22230469 9.00296875 7.25710937 10.2559375 7.29296875 11.546875 C6.9832476 15.19745496 6.70959651 16.57840833 4 19 C2.35 19.33 0.7 19.66 -1 20 C-0.67 13.4 -0.34 6.8 0 0 Z " fill="#1A8ACB" transform="translate(194,321)"/>
<path d="M0 0 C2.15266842 2.15266842 2.93474462 3.84773744 4.125 6.625 C4.47820312 7.44226563 4.83140625 8.25953125 5.1953125 9.1015625 C5.46085937 9.72804688 5.72640625 10.35453125 6 11 C7.32 9.68 8.64 8.36 10 7 C10.25 10.3125 10.25 10.3125 10 14 C8 15.9375 8 15.9375 6 17 C6.33 17.99 6.66 18.98 7 20 C7 20.66 7 21.32 7 22 C8.32 22.33 9.64 22.66 11 23 C11 22.01 11 21.02 11 20 C11.66 20 12.32 20 13 20 C13 18.68 13 17.36 13 16 C13.66 16 14.32 16 15 16 C13.125 21.75 13.125 21.75 12 24 C8.37 24 4.74 24 1 24 C-0.5625 21.1875 -0.5625 21.1875 -2 18 C-1.505 16.515 -1.505 16.515 -1 15 C-0.01 16.32 0.98 17.64 2 19 C3.2246857 12.65390137 2.77614823 9.77438832 0 4 C0 2.68 0 1.36 0 0 Z " fill="#1DA2B9" transform="translate(263,329)"/>
<path d="M0 0 C1 3 1 3 1 5 C0.01 5.33 -0.98 5.66 -2 6 C-2.33 9.63 -2.66 13.26 -3 17 C-1.35 16.34 0.3 15.68 2 15 C2.66 15.33 3.32 15.66 4 16 C4 12.04 4 8.08 4 4 C4.99 4.33 5.98 4.66 7 5 C7 4.01 7 3.02 7 2 C10.96 2 14.92 2 19 2 C19 2.33 19 2.66 19 3 C18.30132812 3.12117188 17.60265625 3.24234375 16.8828125 3.3671875 C15.97273438 3.53476562 15.06265625 3.70234375 14.125 3.875 C12.76761719 4.11863281 12.76761719 4.11863281 11.3828125 4.3671875 C8.83494012 4.83044703 8.83494012 4.83044703 7 7 C6.68110168 9.0719137 6.68110168 9.0719137 6.75 11.375 C6.74484375 12.14585937 6.7396875 12.91671875 6.734375 13.7109375 C7.02311955 16.1992361 7.75860771 17.84234198 9 20 C6.69 19.67 4.38 19.34 2 19 C1.67 20.32 1.34 21.64 1 23 C2.32 23.33 3.64 23.66 5 24 C4.34 24.66 3.68 25.32 3 26 C-3.84895793 19.33127781 -3.84895793 19.33127781 -4.3359375 15.0390625 C-4.34882813 13.91242188 -4.36171875 12.78578125 -4.375 11.625 C-4.40335938 10.50351562 -4.43171875 9.38203125 -4.4609375 8.2265625 C-3.91456676 4.40196732 -2.62266145 2.76778896 0 0 Z " fill="#1F76B1" transform="translate(213,325)"/>
<path d="M0 0 C0 6.6 0 13.2 0 20 C-2.31 21.32 -4.62 22.64 -7 24 C-8.03413687 27.17326113 -8.03413687 27.17326113 -7.8671875 30.77734375 C-7.88523438 32.09541016 -7.90328125 33.41347656 -7.921875 34.77148438 C-7.90748279 36.16016957 -7.89184596 37.5488424 -7.875 38.9375 C-7.87953442 40.32228024 -7.88731375 41.70705389 -7.8984375 43.09179688 C-7.91836889 45.64176898 -7.92246735 48.19194808 -7.90576172 50.74194336 C-7.98951956 53.63766466 -8.32682329 56.19089658 -9 59 C-10.65 59 -12.3 59 -14 59 C-13.01 56.03 -13.01 56.03 -12 53 C-11.34 53 -10.68 53 -10 53 C-9.98018066 52.10692139 -9.96036133 51.21384277 -9.93994141 50.29370117 C-9.86181302 46.97799292 -9.77512029 43.66273838 -9.68261719 40.34741211 C-9.64435134 38.91292932 -9.60949419 37.47835135 -9.578125 36.04370117 C-9.53242138 33.98061122 -9.47443807 31.91817505 -9.4140625 29.85546875 C-9.3826416 28.61434326 -9.3512207 27.37321777 -9.31884766 26.09448242 C-9 23 -9 23 -7 20 C-5.02 19.67 -3.04 19.34 -1 19 C-1 14.05 -1 9.1 -1 4 C-3.31 4 -5.62 4 -8 4 C-8 3.01 -8 2.02 -8 1 C-2.25 0 -2.25 0 0 0 Z " fill="#289AAE" transform="translate(228,180)"/>
<path d="M0 0 C0.33 0 0.66 0 1 0 C1 6.27 1 12.54 1 19 C-9.375 25.125 -9.375 25.125 -15 24 C-15 19.38 -15 14.76 -15 10 C-14.34 10 -13.68 10 -13 10 C-11.59583294 12.62111184 -10.3830153 15.03163146 -10 18 C-10.66 18.99 -11.32 19.98 -12 21 C-10.63875 20.319375 -10.63875 20.319375 -9.25 19.625 C-7.41619324 18.70809662 -5.56934399 17.81377037 -3.6875 17 C-1.64996902 16.04145794 -1.64996902 16.04145794 -1 13 C-0.77548542 10.77425665 -0.59217122 8.54418481 -0.4375 6.3125 C-0.35371094 5.13300781 -0.26992188 3.95351562 -0.18359375 2.73828125 C-0.12300781 1.83464844 -0.06242187 0.93101562 0 0 Z " fill="#1D87B0" transform="translate(302,192)"/>
<path d="M0 0 C-0.33 0.99 -0.66 1.98 -1 3 C-1.99 3 -2.98 3 -4 3 C-3.99777939 3.5524942 -3.99555878 4.1049884 -3.99327087 4.67422485 C-3.97073627 10.54924862 -3.95589836 16.42425969 -3.94506836 22.29931641 C-3.94011241 24.47705587 -3.93334572 26.65479215 -3.92456055 28.83251953 C-3.86663191 43.58728434 -4.18618512 58.26692289 -5 73 C-5.33 73 -5.66 73 -6 73 C-6.06946571 63.92498432 -6.12279367 54.85005995 -6.15543652 45.77483654 C-6.17110231 41.56097724 -6.19235703 37.34729964 -6.22631836 33.13354492 C-6.25887957 29.06813581 -6.27684613 25.00290164 -6.28463173 20.93737221 C-6.2901811 19.38518837 -6.30101755 17.83301427 -6.31719017 16.28090477 C-6.33892207 14.10917741 -6.3419688 11.93817576 -6.34057617 9.76635742 C-6.34723801 8.52947678 -6.35389984 7.29259613 -6.36076355 6.01823425 C-6 3 -6 3 -4.66621399 1.07710266 C-3 0 -3 0 0 0 Z " fill="#195D63" transform="translate(181,173)"/>
<path d="M0 0 C0.66 0.33 1.32 0.66 2 1 C1.01 1.99 0.02 2.98 -1 4 C-0.01 5.485 -0.01 5.485 1 7 C-0.2375 6.9175 -1.475 6.835 -2.75 6.75 C-5.8510592 6.76099666 -6.81412391 6.87918054 -9.5 8.625 C-11.37956836 11.60098323 -11.31424507 13.54330418 -11 17 C-11.556875 16.67 -12.11375 16.34 -12.6875 16 C-15.99257729 14.57077739 -18.66676393 14.64708457 -22.125 15.5625 C-24 16 -24 16 -27 15 C-25.82642944 14.37170288 -25.82642944 14.37170288 -24.62915039 13.73071289 C-21.73417412 12.17973275 -18.84006442 10.62715954 -15.9465332 9.07348633 C-14.69264693 8.40064156 -13.438416 7.72843866 -12.18383789 7.05688477 C-10.38337233 6.09298479 -8.58414805 5.12680337 -6.78515625 4.16015625 C-5.70113525 3.57886963 -4.61711426 2.99758301 -3.50024414 2.39868164 C-1.13192656 1.22255544 -1.13192656 1.22255544 0 0 Z " fill="#26A6B8" transform="translate(240,139)"/>
<path d="M0 0 C2.97 0 5.94 0 9 0 C12.22265625 5.2734375 12.22265625 5.2734375 13 7 C12.67 7.66 12.34 8.32 12 9 C11.67 7.68 11.34 6.36 11 5 C9.35 4.67 7.7 4.34 6 4 C5.67 6.64 5.34 9.28 5 12 C5.66 12 6.32 12 7 12 C7 13.32 7 14.64 7 16 C7.66 16 8.32 16 9 16 C9 17.65 9 19.3 9 21 C6.04063651 17.43780321 4.18972424 13.54181504 2.25 9.375 C1.92128906 8.694375 1.59257812 8.01375 1.25390625 7.3125 C0.43798694 5.57049506 -0.28847373 3.78718658 -1 2 C-0.67 1.34 -0.34 0.68 0 0 Z " fill="#19A0B7" transform="translate(250,320)"/>
<path d="M0 0 C3.3 0 6.6 0 10 0 C13.22265625 6.0546875 13.22265625 6.0546875 14 8 C12.74458443 10.51083114 11.49936512 10.87125446 9 12 C9.12375 13.8871875 9.12375 13.8871875 9.25 15.8125 C9.265625 18.01953125 9.265625 18.01953125 9 20 C7 22 7 22 5 23 C5 21.68 5 20.36 5 19 C5.99 19 6.98 19 8 19 C6.68 16.03 5.36 13.06 4 10 C5.32 9.34 6.64 8.68 8 8 C8 6.02 8 4.04 8 2 C5.03 2 2.06 2 -1 2 C-0.67 1.34 -0.34 0.68 0 0 Z " fill="#1CADC5" transform="translate(305,320)"/>
<path d="M0 0 C3.96 0 7.92 0 12 0 C11.67 0.66 11.34 1.32 11 2 C10.00742187 1.91363281 9.01484375 1.82726562 7.9921875 1.73828125 C3.2696286 1.7442171 0.06552494 3.77560242 -3.875 6.1875 C-4.57318848 6.59734131 -5.27137695 7.00718262 -5.99072266 7.42944336 C-7.37222383 8.24047789 -8.75044427 9.05713191 -10.125 9.87988281 C-12.52111376 11.31131119 -14.94154021 12.69565408 -17.375 14.0625 C-18.04273438 14.44535156 -18.71046875 14.82820312 -19.3984375 15.22265625 C-21 16 -21 16 -23 16 C-23 15.34 -23 14.68 -23 14 C-22.01 14 -21.02 14 -20 14 C-20 13.34 -20 12.68 -20 12 C-19.01 12 -18.02 12 -17 12 C-16.67 10.68 -16.34 9.36 -16 8 C-14.35 8.33 -12.7 8.66 -11 9 C-11 7.68 -11 6.36 -11 5 C-7.535 4.505 -7.535 4.505 -4 4 C-4 3.34 -4 2.68 -4 2 C-2.68 2 -1.36 2 0 2 C0 1.34 0 0.68 0 0 Z " fill="#22A8B6" transform="translate(247,145)"/>
<path d="M0 0 C0.99 0.33 1.98 0.66 3 1 C4.33290816 8.14923469 4.33290816 8.14923469 2.875 11.875 C0.66373555 14.38109971 -0.75469979 15.22730947 -4 16 C-7.8196715 15.72051184 -10.19139982 14.60055572 -13 12 C-13 11.34 -13 10.68 -13 10 C-14.175625 10.0928125 -14.175625 10.0928125 -15.375 10.1875 C-16.674375 10.0946875 -16.674375 10.0946875 -18 10 C-18.66 9.01 -19.32 8.02 -20 7 C-18.3743193 7.30893932 -16.74947252 7.6222695 -15.125 7.9375 C-14.22007812 8.11152344 -13.31515625 8.28554688 -12.3828125 8.46484375 C-10 9 -10 9 -8 10 C-8.33 10.66 -8.66 11.32 -9 12 C-6.03 12.33 -3.06 12.66 0 13 C0 8.71 0 4.42 0 0 Z " fill="#1A6D9B" transform="translate(300,248)"/>
<path d="M0 0 C0.6875 2.625 0.6875 2.625 1 5 C-0.98 5.99 -2.96 6.98 -5 8 C-5 8.33 -5 8.66 -5 9 C-6.65 9 -8.3 9 -10 9 C-10.36521739 2.54782609 -10.36521739 2.54782609 -8.75 0.125 C-5.05783508 -2.24853459 -3.76240194 -2.50826796 0 0 Z " fill="#1ED4E1" transform="translate(203,166)"/>
<path d="M0 0 C0.66 0 1.32 0 2 0 C-3.14285714 17.14285714 -3.14285714 17.14285714 -8 22 C-9.68608966 22.07205511 -11.37500659 22.08386068 -13.0625 22.0625 C-13.98160156 22.05347656 -14.90070313 22.04445313 -15.84765625 22.03515625 C-16.55792969 22.02355469 -17.26820313 22.01195312 -18 22 C-16.25 16.25 -16.25 16.25 -14 14 C-14.33 15.98 -14.66 17.96 -15 20 C-12.69 20 -10.38 20 -8 20 C-8 18.35 -8 16.7 -8 15 C-7.34 15 -6.68 15 -6 15 C-6 13.35 -6 11.7 -6 10 C-5.34 10 -4.68 10 -4 10 C-4 9.01 -4 8.02 -4 7 C-3.34 7 -2.68 7 -2 7 C-1.855625 6.030625 -1.71125 5.06125 -1.5625 4.0625 C-1 1 -1 1 0 0 Z " fill="#1E9EAE" transform="translate(307,331)"/>
<path d="M0 0 C2.31 0.33 4.62 0.66 7 1 C7 1.66 7 2.32 7 3 C7.99 3.33 8.98 3.66 10 4 C10 4.99 10 5.98 10 7 C9.01 7 8.02 7 7 7 C6.67 7.66 6.34 8.32 6 9 C5.34 9 4.68 9 4 9 C4 8.34 4 7.68 4 7 C1.36 7.33 -1.28 7.66 -4 8 C-3.67 6.35 -3.34 4.7 -3 3 C-2.01 2.67 -1.02 2.34 0 2 C0 1.34 0 0.68 0 0 Z " fill="#20A7CF" transform="translate(305,164)"/>
<path d="M0 0 C0.12375 0.639375 0.2475 1.27875 0.375 1.9375 C0.58125 2.618125 0.7875 3.29875 1 4 C1.66 4.33 2.32 4.66 3 5 C2.34 5 1.68 5 1 5 C1 5.99 1 6.98 1 8 C-0.98 8.33 -2.96 8.66 -5 9 C-5.66 8.01 -6.32 7.02 -7 6 C-9.55183404 4.79549696 -9.55183404 4.79549696 -12 4 C-11 2 -11 2 -8.25 0.875 C-5.29813104 0.08026605 -3.02780163 -0.17810598 0 0 Z " fill="#1BC3D8" transform="translate(276,145)"/>
<path d="M0 0 C6.15234375 -0.09765625 6.15234375 -0.09765625 8 0 C9 1 9 1 9.11352539 4.05102539 C9.11336634 5.39991271 9.10767612 6.74880614 9.09765625 8.09765625 C9.0962413 8.80651474 9.09482635 9.51537323 9.09336853 10.24571228 C9.08775443 12.51801712 9.07519963 14.79022475 9.0625 17.0625 C9.05748681 18.59960796 9.05292359 20.13671745 9.04882812 21.67382812 C9.03778042 25.44925642 9.02050641 29.22461171 9 33 C8.67 33 8.34 33 8 33 C6.67621602 22.69339617 6.90860934 12.36776236 7 2 C5.68 2 4.36 2 3 2 C3 2.66 3 3.32 3 4 C2.34 4 1.68 4 1 4 C0.67 2.68 0.34 1.36 0 0 Z " fill="#1D6B96" transform="translate(194,320)"/>
<path d="M0 0 C0 2 0 2 -1.12890625 3.46875 C-3.55600811 5.45502125 -6.01502294 6.37291367 -8.9375 7.5 C-12.75101576 8.97437041 -15.8351724 10.40553694 -19 13 C-21.5 14.8125 -21.5 14.8125 -24 16 C-26.3125 15.1875 -26.3125 15.1875 -28 14 C-27.67 13.34 -27.34 12.68 -27 12 C-26.25105469 11.85046875 -25.50210938 11.7009375 -24.73046875 11.546875 C-21.70992874 10.94190275 -19.89490021 9.90615088 -17.3125 8.25 C-4.02083333 0 -4.02083333 0 0 0 Z " fill="#1F729F" transform="translate(279,278)"/>
<path d="M0 0 C0.33 0 0.66 0 1 0 C1 1.98 1 3.96 1 6 C-0.98 6.99 -0.98 6.99 -3 8 C-3.33 24.83 -3.66 41.66 -4 59 C-4.33 59 -4.66 59 -5 59 C-5.0759439 51.64939985 -5.12855502 44.29890053 -5.16479492 36.94799805 C-5.17989944 34.44633198 -5.20038429 31.94469247 -5.22631836 29.44311523 C-5.26262775 25.85133316 -5.27970975 22.25990059 -5.29296875 18.66796875 C-5.31619453 16.98503975 -5.31619453 16.98503975 -5.33988953 15.26811218 C-5.34022942 13.70683342 -5.34022942 13.70683342 -5.34057617 12.11401367 C-5.34723801 11.19690109 -5.35389984 10.27978851 -5.36076355 9.33488464 C-4.93122352 6.55487428 -4.24273416 5.65070919 -2 4 C-1.34 4 -0.68 4 0 4 C0 2.68 0 1.36 0 0 Z " fill="#1D7C97" transform="translate(209,186)"/>
<path d="M0 0 C0.33 0.66 0.66 1.32 1 2 C0.360625 2.350625 -0.27875 2.70125 -0.9375 3.0625 C-3.82163832 5.77184206 -3.7100822 8.15858911 -4 12 C-3.45730469 11.79503906 -2.91460937 11.59007812 -2.35546875 11.37890625 C-1.28232422 10.97478516 -1.28232422 10.97478516 -0.1875 10.5625 C0.52019531 10.29566406 1.22789062 10.02882812 1.95703125 9.75390625 C3.62672396 9.13774814 5.31157704 8.56280765 7 8 C7 7.34 7 6.68 7 6 C10.465 5.505 10.465 5.505 14 5 C11.10594993 8.1397713 8.24639844 10.21212393 4.5 12.25 C3.5615625 12.77078125 2.623125 13.2915625 1.65625 13.828125 C-1 15 -1 15 -5 15 C-5.13504138 13.06440687 -5.23201129 11.126128 -5.3125 9.1875 C-5.37050781 8.10855469 -5.42851562 7.02960938 -5.48828125 5.91796875 C-5 3 -5 3 -2.48046875 1.11328125 C-1.66191406 0.74589844 -0.84335938 0.37851563 0 0 Z " fill="#27A6B4" transform="translate(197,163)"/>
<path d="M0 0 C2 1 2 1 3.1875 3.5 C4.55271451 9.38092406 3.92505101 14.70134203 1 20 C0.34 20 -0.32 20 -1 20 C-1 20.66 -1 21.32 -1 22 C-1.66 22 -2.32 22 -3 22 C-3 22.66 -3 23.32 -3 24 C-4.32 24.33 -5.64 24.66 -7 25 C-7.33 24.34 -7.66 23.68 -8 23 C-7.34 23 -6.68 23 -6 23 C-6 22.34 -6 21.68 -6 21 C-4.68 21 -3.36 21 -2 21 C-2.33 19.35 -2.66 17.7 -3 16 C-2.01 16 -1.02 16 0 16 C0.91397824 10.31302429 0.91397824 5.68697571 0 0 Z " fill="#1D73AC" transform="translate(244,327)"/>
<path d="M0 0 C2.86005251 0.2958675 3.85571743 0.84079164 5.8125 3 C7.47354074 7.19631345 6.78886754 10.63746748 6 15 C1.24137931 11.70557029 1.24137931 11.70557029 0.1875 8.625 C-0.01866023 5.73875678 -0.06726938 2.89258347 0 0 Z " fill="#16BED7" transform="translate(260,334)"/>
<path d="M0 0 C0.66 0 1.32 0 2 0 C2 0.66 2 1.32 2 2 C3.051875 2.1546875 3.051875 2.1546875 4.125 2.3125 C7.39137647 3.09359003 10.0471852 4.42058743 13 6 C13 6.33 13 6.66 13 7 C6.25 6.125 6.25 6.125 4 5 C4.33 9.95 4.66 14.9 5 20 C4.01 19.67 3.02 19.34 2 19 C2 13.72 2 8.44 2 3 C1.34 3 0.68 3 0 3 C0 2.01 0 1.02 0 0 Z " fill="#207699" transform="translate(235,245)"/>
<path d="M0 0 C1.98 0.99 1.98 0.99 4 2 C4 3.98 4 5.96 4 8 C4.763125 8.061875 5.52625 8.12375 6.3125 8.1875 C9 9 9 9 10.9375 11.1875 C12 14 12 14 11.4375 17.25 C10 20 10 20 8.0625 21 C6 21 6 21 3 19 C4.65 19 6.3 19 8 19 C8 16.36 8 13.72 8 11 C7.01 11 6.02 11 5 11 C5 10.34 5 9.68 5 9 C4.34 9 3.68 9 3 9 C3 7.02 3 5.04 3 3 C2.34 3 1.68 3 1 3 C0.67 2.01 0.34 1.02 0 0 Z " fill="#1D71A2" transform="translate(299,227)"/>
<path d="M0 0 C0.99 0 1.98 0 3 0 C3 0.66 3 1.32 3 2 C4.65 2 6.3 2 8 2 C8.33 3.65 8.66 5.3 9 7 C8.01 7 7.02 7 6 7 C5.67 7.66 5.34 8.32 5 9 C3.02 9 1.04 9 -1 9 C-0.67 6.03 -0.34 3.06 0 0 Z " fill="#1EA8CE" transform="translate(197,263)"/>
<path d="M0 0 C1.65 0 3.3 0 5 0 C5.33 0.99 5.66 1.98 6 3 C8.64 3.33 11.28 3.66 14 4 C14 4.66 14 5.32 14 6 C15.32 5.67 16.64 5.34 18 5 C18 4.34 18 3.68 18 3 C20.31 3 22.62 3 25 3 C20.30442939 6.83059708 18.14835648 8.36890139 12 8 C9.625 7 9.625 7 8 6 C8 5.34 8 4.68 8 4 C7.4225 3.896875 6.845 3.79375 6.25 3.6875 C3.67950842 2.90207202 2.06342716 1.69495803 0 0 Z " fill="#2078A3" transform="translate(240,265)"/>
<path d="M0 0 C2.97 0.495 2.97 0.495 6 1 C6.33 2.32 6.66 3.64 7 5 C9.31 5 11.62 5 14 5 C14.33 5.99 14.66 6.98 15 8 C11.04 8 7.08 8 3 8 C3 7.34 3 6.68 3 6 C2.01 5.67 1.02 5.34 0 5 C0 3.35 0 1.7 0 0 Z " fill="#1989CD" transform="translate(214,343)"/>
<path d="M0 0 C0.33 0 0.66 0 1 0 C1.02480062 4.32331963 1.04290758 8.64660106 1.05493164 12.9699707 C1.05994669 14.43937909 1.06676033 15.90878252 1.07543945 17.37817383 C1.08762928 19.49561795 1.09325669 21.61299583 1.09765625 23.73046875 C1.10551147 25.63928833 1.10551147 25.63928833 1.11352539 27.58666992 C1.01539606 30.5370919 0.69063835 33.13946675 0 36 C-1.65 36 -3.3 36 -5 36 C-4.01 33.03 -4.01 33.03 -3 30 C-2.34 30 -1.68 30 -1 30 C-0.67 20.1 -0.34 10.2 0 0 Z " fill="#2DA7C1" transform="translate(219,203)"/>
<path d="M0 0 C2.4546404 1.20561906 4.68135582 2.53310266 7 4 C4 5.5 4 5.5 1 7 C0.67 5.68 0.34 4.36 0 3 C-4.84843843 1.38385386 -7.47578178 3.02579569 -12 5 C-14.21484375 4.59375 -14.21484375 4.59375 -16 4 C-6.68484612 -2.10448859 -6.68484612 -2.10448859 0 0 Z " fill="#24A0B0" transform="translate(258,134)"/>
<path d="M0 0 C0.66 0.33 1.32 0.66 2 1 C1.67 1.33 1.34 1.66 1 2 C0.76346477 4.52596259 0.57826308 7.03107207 0.4375 9.5625 C0.39431641 10.27341797 0.35113281 10.98433594 0.30664062 11.71679688 C0.20028223 13.47761912 0.09961154 15.2387832 0 17 C1.32 17 2.64 17 4 17 C4 16.34 4 15.68 4 15 C5.32 15 6.64 15 8 15 C8 14.01 8 13.02 8 12 C10.64 11.67 13.28 11.34 16 11 C12.94746898 13.40875078 9.78648153 15.32543798 6.375 17.1875 C5.41335937 17.71730469 4.45171875 18.24710938 3.4609375 18.79296875 C1 20 1 20 -1 20 C-1.02888514 16.85418577 -1.04675923 13.70840531 -1.0625 10.5625 C-1.07087891 9.66466797 -1.07925781 8.76683594 -1.08789062 7.84179688 C-1.09111328 6.98779297 -1.09433594 6.13378906 -1.09765625 5.25390625 C-1.10551147 4.06776733 -1.10551147 4.06776733 -1.11352539 2.85766602 C-1 1 -1 1 0 0 Z " fill="#22859D" transform="translate(239,173)"/>
<path d="M0 0 C1.65 1.65 3.3 3.3 5 5 C4.13375 5.0928125 4.13375 5.0928125 3.25 5.1875 C0.11309013 6.32027301 -1.09167504 8.34197595 -3 11 C-3.33 10.67 -3.66 10.34 -4 10 C-4.33 15.28 -4.66 20.56 -5 26 C-5.33 26 -5.66 26 -6 26 C-6 20.06 -6 14.12 -6 8 C-5.34 8 -4.68 8 -4 8 C-3.71125 7.4225 -3.4225 6.845 -3.125 6.25 C-2.08333333 4.16666667 -1.04166667 2.08333333 0 0 Z " fill="#17679D" transform="translate(184,327)"/>
<path d="M0 0 C3.3 0 6.6 0 10 0 C10.33 1.32 10.66 2.64 11 4 C13.98352894 5.78379415 13.98352894 5.78379415 17 7 C17 7.66 17 8.32 17 9 C18.32 9 19.64 9 21 9 C21.33 9.99 21.66 10.98 22 12 C16.73877829 10.48968084 12.32767414 8.09625809 7.625 5.375 C6.88894531 4.95476562 6.15289062 4.53453125 5.39453125 4.1015625 C3.5936235 3.07247236 1.79642682 2.03689244 0 1 C0 0.67 0 0.34 0 0 Z " fill="#1F7FA4" transform="translate(207,278)"/>
<path d="M0 0 C0.33 0 0.66 0 1 0 C1 6.27 1 12.54 1 19 C-6 23 -6 23 -8 23 C-7.8125 20.625 -7.8125 20.625 -7 18 C-4.5 16.875 -4.5 16.875 -2 16 C-0.89485234 12.68455701 -0.67892369 9.79589889 -0.4375 6.3125 C-0.35371094 5.13300781 -0.26992188 3.95351562 -0.18359375 2.73828125 C-0.12300781 1.83464844 -0.06242187 0.93101562 0 0 Z " fill="#166E93" transform="translate(302,192)"/>
<path d="M0 0 C3.40312738 1.05875074 6.01353231 2.00902154 9 4 C9.29296875 6.8203125 9.29296875 6.8203125 9.1875 10.125 C9.16042969 11.22070312 9.13335937 12.31640625 9.10546875 13.4453125 C9.07066406 14.28835937 9.03585937 15.13140625 9 16 C5.66177043 15.38550003 2.97790508 14.65439171 0 13 C2.6666419 11.66667905 4.16680303 12.32897967 7 13 C6.88455718 8.91435675 6.88455718 8.91435675 6 5 C3.08158143 2.91367303 3.08158143 2.91367303 0 2 C0 1.34 0 0.68 0 0 Z " fill="#1D779A" transform="translate(323,171)"/>
<path d="M0 0 C1.32 0 2.64 0 4 0 C3.34 2.31 2.68 4.62 2 7 C0.68 7.33 -0.64 7.66 -2 8 C-2 13.61 -2 19.22 -2 25 C-4.31 25 -6.62 25 -9 25 C-9 24.67 -9 24.34 -9 24 C-7.02 24 -5.04 24 -3 24 C-3 18.06 -3 12.12 -3 6 C-2.34 6 -1.68 6 -1 6 C-0.67 4.02 -0.34 2.04 0 0 Z " fill="#1E83C2" transform="translate(180,327)"/>
<path d="M0 0 C1.98 0 3.96 0 6 0 C2.23501682 3.04549687 -1.915341 5.32662684 -6.125 7.6875 C-6.85332031 8.10322266 -7.58164062 8.51894531 -8.33203125 8.94726562 C-9.02941406 9.33978516 -9.72679687 9.73230469 -10.4453125 10.13671875 C-11.07969238 10.49467529 -11.71407227 10.85263184 -12.36767578 11.22143555 C-14 12 -14 12 -16 12 C-15.67 11.01 -15.34 10.02 -15 9 C-14.01 9 -13.02 9 -12 9 C-12 8.34 -12 7.68 -12 7 C-5.41484716 4.08733624 -5.41484716 4.08733624 -2.625 3.5 C-2.08875 3.335 -1.5525 3.17 -1 3 C-0.67 2.01 -0.34 1.02 0 0 Z " fill="#1B6E9D" transform="translate(306,272)"/>
<path d="M0 0 C-4.61662817 4.02093421 -10.67055513 9 -17 9 C-17 8.34 -17 7.68 -17 7 C-16.01 7 -15.02 7 -14 7 C-14 5.35 -14 3.7 -14 2 C-11.69 2.33 -9.38 2.66 -7 3 C-7 2.34 -7 1.68 -7 1 C-4.53721199 -0.231394 -2.7204945 -0.07159196 0 0 Z " fill="#1A71A0" transform="translate(290,284)"/>
<path d="M0 0 C0.33 0.99 0.66 1.98 1 3 C-0.05078125 4.45703125 -0.05078125 4.45703125 -2 6 C-5.35546875 6.51171875 -5.35546875 6.51171875 -9.1875 6.6875 C-11.09595703 6.78611328 -11.09595703 6.78611328 -13.04296875 6.88671875 C-14.01878906 6.92410156 -14.99460938 6.96148437 -16 7 C-16 5.68 -16 4.36 -16 3 C-15.26394531 3.03480469 -14.52789062 3.06960938 -13.76953125 3.10546875 C-6.37520524 3.42963774 -6.37520524 3.42963774 0 0 Z " fill="#1C7BAE" transform="translate(236,342)"/>
<path d="M0 0 C4.13347071 0.47239665 7.35761877 2.05174957 11 4 C7.34361463 5.3542168 5.48672608 4.51496224 2 3 C1.93941406 3.91523438 1.87882812 4.83046875 1.81640625 5.7734375 C1.69072266 7.55621094 1.69072266 7.55621094 1.5625 9.375 C1.48128906 10.55835938 1.40007812 11.74171875 1.31640625 12.9609375 C1 16 1 16 0 18 C-1.65 18 -3.3 18 -5 18 C-4 16 -4 16 -1 15 C-1.01160156 14.00097656 -1.02320313 13.00195312 -1.03515625 11.97265625 C-1.04869141 10.03712891 -1.04869141 10.03712891 -1.0625 8.0625 C-1.07410156 6.77472656 -1.08570313 5.48695313 -1.09765625 4.16015625 C-1 1 -1 1 0 0 Z " fill="#196C92" transform="translate(288,222)"/>
<path d="M0 0 C0.1875 2.625 0.1875 2.625 0 5 C-0.8353125 4.505 -0.8353125 4.505 -1.6875 4 C-4.99257729 2.57077739 -7.66676393 2.64708457 -11.125 3.5625 C-13 4 -13 4 -16 3 C-4.61268091 -3.07512061 -4.61268091 -3.07512061 0 0 Z " fill="#20BDC8" transform="translate(229,151)"/>
<path d="M0 0 C0.33 0 0.66 0 1 0 C1 12.21 1 24.42 1 37 C-1.97 37.495 -1.97 37.495 -5 38 C-4.35256836 37.66895264 -3.70513672 37.33790527 -3.03808594 36.99682617 C-0.51279813 34.52266122 -0.49146695 32.77392983 -0.39434814 29.32380676 C-0.39250519 28.19865913 -0.39250519 28.19865913 -0.390625 27.05078125 C-0.37408875 26.27816452 -0.35755249 25.50554779 -0.34051514 24.70951843 C-0.29196142 22.24376538 -0.27064912 19.77862928 -0.25 17.3125 C-0.22184628 15.63994279 -0.19191969 13.96741442 -0.16015625 12.29492188 C-0.08620119 8.19666538 -0.03667222 4.09875284 0 0 Z " fill="#1C80B9" transform="translate(322,219)"/>
<path d="M0 0 C0 5.94 0 11.88 0 18 C-0.66 17.67 -1.32 17.34 -2 17 C-2.4140625 13.83984375 -2.4140625 13.83984375 -2.625 9.9375 C-2.69976562 8.64714844 -2.77453125 7.35679687 -2.8515625 6.02734375 C-2.90054687 5.02832031 -2.94953125 4.02929688 -3 3 C-4.32 2.67 -5.64 2.34 -7 2 C-4.35261084 0.5393715 -3.10551666 0 0 0 Z " fill="#20719A" transform="translate(269,249)"/>
<path d="M0 0 C1.23556641 0.01740234 1.23556641 0.01740234 2.49609375 0.03515625 C3.32238281 0.04417969 4.14867187 0.05320312 5 0.0625 C5.63808594 0.07410156 6.27617187 0.08570313 6.93359375 0.09765625 C10.15625 5.37109375 10.15625 5.37109375 10.93359375 7.09765625 C10.60359375 7.75765625 10.27359375 8.41765625 9.93359375 9.09765625 C9.60359375 7.77765625 9.27359375 6.45765625 8.93359375 5.09765625 C8.27359375 5.09765625 7.61359375 5.09765625 6.93359375 5.09765625 C6.93359375 4.43765625 6.93359375 3.77765625 6.93359375 3.09765625 C3.30830807 2.89625149 1.06857667 3.2398886 -2.06640625 5.09765625 C-2.62890625 3.16015625 -2.62890625 3.16015625 -3.06640625 1.09765625 C-2.06640625 0.09765625 -2.06640625 0.09765625 0 0 Z " fill="#2093AA" transform="translate(252.06640625,319.90234375)"/>
<path d="M0 0 C-2.06069917 1.12840628 -4.12343096 2.25278771 -6.1875 3.375 C-7.33605469 4.00148438 -8.48460937 4.62796875 -9.66796875 5.2734375 C-12.41513062 6.69693755 -15.10520381 7.92058447 -18 9 C-18 8.01 -18 7.02 -18 6 C-17.01 5.67 -16.02 5.34 -15 5 C-15 4.34 -15 3.68 -15 3 C-12.69 3 -10.38 3 -8 3 C-7.67 2.01 -7.34 1.02 -7 0 C-3.86650268 -1.04449911 -3.01031744 -0.93423645 0 0 Z " fill="#1A74A9" transform="translate(330,263)"/>
<path d="M0 0 C5.75 0.75 5.75 0.75 8 3 C10.66949409 3.24315656 10.66949409 3.24315656 13.625 3.125 C14.62789063 3.10695313 15.63078125 3.08890625 16.6640625 3.0703125 C17.82035156 3.03550781 17.82035156 3.03550781 19 3 C14.89937974 6.98001378 14.89937974 6.98001378 11.1875 7.0625 C7.03716469 5.6790549 3.49662594 3.6269068 0 1 C0 0.67 0 0.34 0 0 Z " fill="#1B6896" transform="translate(242,297)"/>
<path d="M0 0 C0.5534764 2.07553648 1 3.84365964 1 6 C1.66 6 2.32 6 3 6 C2.67 7.65 2.34 9.3 2 11 C0.68 10.67 -0.64 10.34 -2 10 C-2 10.66 -2 11.32 -2 12 C-2.99 12 -3.98 12 -5 12 C-3.68938409 7.76570244 -2.05643741 3.92592596 0 0 Z " fill="#1AA3B9" transform="translate(303,322)"/>
<path d="M0 0 C0.33 0 0.66 0 1 0 C1 6.93 1 13.86 1 21 C-5.75 18.75 -5.75 18.75 -8 16 C-5.36 16.33 -2.72 16.66 0 17 C0 11.39 0 5.78 0 0 Z " fill="#2C92AD" transform="translate(186,246)"/>
<path d="M0 0 C0.66 0.33 1.32 0.66 2 1 C2.625 4.0625 2.625 4.0625 3 7 C2.34 7 1.68 7 1 7 C0.67 7.99 0.34 8.98 0 10 C-0.66 10 -1.32 10 -2 10 C-2.66 7.69 -3.32 5.38 -4 3 C-2.68 2.67 -1.36 2.34 0 2 C0 1.34 0 0.68 0 0 Z " fill="#1CBFD8" transform="translate(317,329)"/>
<path d="M0 0 C0.66 0.99 1.32 1.98 2 3 C1.3203125 5.26171875 1.3203125 5.26171875 0 8 C-0.49757813 9.09957031 -0.99515625 10.19914062 -1.5078125 11.33203125 C-2.04148437 12.48058594 -2.57515625 13.62914062 -3.125 14.8125 C-3.93324219 16.55466797 -3.93324219 16.55466797 -4.7578125 18.33203125 C-5.16773438 19.21246094 -5.57765625 20.09289062 -6 21 C-6.33 21 -6.66 21 -7 21 C-7 19.35 -7 17.7 -7 16 C-6.34 16 -5.68 16 -5 16 C-4.67 14.02 -4.34 12.04 -4 10 C-3.34 10 -2.68 10 -2 10 C-2 8.35 -2 6.7 -2 5 C-1.34 5 -0.68 5 0 5 C0 3.35 0 1.7 0 0 Z " fill="#1C91A7" transform="translate(285,324)"/>
<path d="M0 0 C0.33 0.66 0.66 1.32 1 2 C0.34 2 -0.32 2 -1 2 C-1.33 3.32 -1.66 4.64 -2 6 C-2.66 6 -3.32 6 -4 6 C-4 6.66 -4 7.32 -4 8 C-6.97 8 -9.94 8 -13 8 C-10.20375042 5.81302498 -7.36692128 4.00847187 -4.25 2.3125 C-3.45078125 1.87550781 -2.6515625 1.43851563 -1.828125 0.98828125 C-1.22484375 0.66214844 -0.6215625 0.33601562 0 0 Z " fill="#22A8B3" transform="translate(211,155)"/>
<path d="M0 0 C2.375 -0.125 2.375 -0.125 5 0 C5.66 0.66 6.32 1.32 7 2 C8.98356483 2.71408334 10.98315437 3.38617742 13 4 C13 4.66 13 5.32 13 6 C14.65 6 16.3 6 18 6 C17.01 7.485 17.01 7.485 16 9 C12.20950293 7.57250019 8.72877544 5.83763458 5.1875 3.875 C4.21167969 3.33617187 3.23585938 2.79734375 2.23046875 2.2421875 C1.49441406 1.83226562 0.75835937 1.42234375 0 1 C0 0.67 0 0.34 0 0 Z " fill="#2297A9" transform="translate(258,147)"/>
<path d="M0 0 C4.30764815 1.56641751 8.06171464 3.68336156 12 6 C8.71023192 7.09658936 7.28696233 6.79953138 4 6 C4 5.34 4 4.68 4 4 C2.68 4 1.36 4 0 4 C-0.33 4.66 -0.66 5.32 -1 6 C-1.33 5.01 -1.66 4.02 -2 3 C-1.34 3 -0.68 3 0 3 C0 2.01 0 1.02 0 0 Z " fill="#2286AC" transform="translate(290,185)"/>
<path d="M0 0 C0.66 0.33 1.32 0.66 2 1 C1.649375 1.495 1.29875 1.99 0.9375 2.5 C-0.48822766 6.30194044 0.23022731 9.02284108 1 13 C1.66 13.66 2.32 14.32 3 15 C2.67 15.66 2.34 16.32 2 17 C0.68 17 -0.64 17 -2 17 C-2.05383848 14.54137599 -2.09359038 12.0839245 -2.125 9.625 C-2.14175781 8.92632812 -2.15851563 8.22765625 -2.17578125 7.5078125 C-2.19344267 5.67102514 -2.10303261 3.83398037 -2 2 C-1.34 1.34 -0.68 0.68 0 0 Z " fill="#29B7D2" transform="translate(241,173)"/>
<path d="M0 0 C-0.75 2.4375 -0.75 2.4375 -2 5 C-4.49476051 6.04618989 -6.26856911 6 -9 6 C-9 5.01 -9 4.02 -9 3 C-8.34 3 -7.68 3 -7 3 C-7 2.34 -7 1.68 -7 1 C-4.53721199 -0.231394 -2.7204945 -0.07159196 0 0 Z " fill="#12C2DA" transform="translate(312,323)"/>
<path d="M0 0 C0.66 0.33 1.32 0.66 2 1 C1.01 2.485 1.01 2.485 0 4 C0.99 4.66 1.98 5.32 3 6 C1.75 7.5 1.75 7.5 0 9 C-1.32 9 -2.64 9 -4 9 C-4.25 6.1875 -4.25 6.1875 -4 3 C-2 1.125 -2 1.125 0 0 Z " fill="#22C5D8" transform="translate(214,183)"/>
<path d="M0 0 C3.96 0 7.92 0 12 0 C12 0.33 12 0.66 12 1 C11.30132812 1.12117188 10.60265625 1.24234375 9.8828125 1.3671875 C8.51769531 1.61855469 8.51769531 1.61855469 7.125 1.875 C6.22007812 2.03742188 5.31515625 2.19984375 4.3828125 2.3671875 C1.83494012 2.83044703 1.83494012 2.83044703 0 5 C-0.45811675 6.97235333 -0.45811675 6.97235333 -0.625 9.125 C-0.74875 10.40375 -0.8725 11.6825 -1 13 C-1.33 13 -1.66 13 -2 13 C-2.33 9.37 -2.66 5.74 -3 2 C-2.01 2.33 -1.02 2.66 0 3 C0 2.01 0 1.02 0 0 Z " fill="#135D8A" transform="translate(220,327)"/>
<path d="M0 0 C0 2 0 4 0 6 C-5.75 7.125 -5.75 7.125 -8 6 C-8 5.34 -8 4.68 -8 4 C-5.36107824 2.21694476 -3.02821137 1.00940379 0 0 Z " fill="#1DB4D4" transform="translate(295,156)"/>
<path d="M0 0 C0.66 0.33 1.32 0.66 2 1 C2.86159454 4.23097953 3.30597523 6.22486274 2.0625 9.375 C1.711875 9.91125 1.36125 10.4475 1 11 C0.01 10.67 -0.98 10.34 -2 10 C-2.33 8.35 -2.66 6.7 -3 5 C-2.01 4.67 -1.02 4.34 0 4 C0 2.68 0 1.36 0 0 Z " fill="#16BEDC" transform="translate(278,329)"/>
<path d="M0 0 C4.05281712 1.22527029 7.44360764 2.69880494 11 5 C8 7 8 7 5.5 7 C3 6 3 6 1.1875 2.9375 C0.795625 1.968125 0.40375 0.99875 0 0 Z " fill="#24A4BA" transform="translate(265,139)"/>
<path d="M0 0 C2.15266842 2.15266842 2.93474462 3.84773744 4.125 6.625 C4.47820312 7.44226563 4.83140625 8.25953125 5.1953125 9.1015625 C5.46085937 9.72804688 5.72640625 10.35453125 6 11 C6.66 11 7.32 11 8 11 C8 11.99 8 12.98 8 14 C6.68 14 5.36 14 4 14 C3.32471777 12.42032193 2.66010306 10.83608097 2 9.25 C1.62875 8.36828125 1.2575 7.4865625 0.875 6.578125 C0 4 0 4 0 0 Z " fill="#2093AF" transform="translate(263,329)"/>
<path d="M0 0 C1.65 0 3.3 0 5 0 C5 0.99 5 1.98 5 3 C5.37837892 8.15820589 5.37837892 8.15820589 7 13 C6.34 13.66 5.68 14.32 5 15 C3.5216774 12.04335481 3.93967217 9.25770263 4 6 C3.34 6 2.68 6 2 6 C2 4.68 2 3.36 2 2 C1.34 2 0.68 2 0 2 C0 1.34 0 0.68 0 0 Z " fill="#1CAFC9" transform="translate(255,330)"/>
<path d="M0 0 C0.8971875 0.309375 0.8971875 0.309375 1.8125 0.625 C-3.88474771 5.05619266 -3.88474771 5.05619266 -7.1875 6.625 C-9.5 5.8125 -9.5 5.8125 -11.1875 4.625 C-10.8575 3.965 -10.5275 3.305 -10.1875 2.625 C-8.52428518 2.27484951 -6.85715451 1.94302943 -5.1875 1.625 C-2.1875 -0.375 -2.1875 -0.375 0 0 Z " fill="#1E79AB" transform="translate(262.1875,287.375)"/>
<path d="M0 0 C3.91211733 1.15585285 6.8745041 2.35534962 10 5 C8.02 5 6.04 5 4 5 C4 4.34 4 3.68 4 3 C3.01 3 2.02 3 1 3 C0.67 5.64 0.34 8.28 0 11 C-1.37432457 7.18243176 -0.67975039 3.92744671 0 0 Z " fill="#277F9D" transform="translate(196,260)"/>
<path d="M0 0 C1.875 0.1875 1.875 0.1875 4 1 C5.25 3.5625 5.25 3.5625 6 6 C3.69 6 1.38 6 -1 6 C-0.67 4.02 -0.34 2.04 0 0 Z " fill="#16BFDB" transform="translate(293,345)"/>
<path d="M0 0 C1.98 0 3.96 0 6 0 C7.04976964 3.14930893 7.10131595 5.38814456 7.0625 8.6875 C7.05347656 9.68136719 7.04445312 10.67523438 7.03515625 11.69921875 C7.02355469 12.45847656 7.01195312 13.21773438 7 14 C6.34 14 5.68 14 5 14 C5.103125 12.80375 5.20625 11.6075 5.3125 10.375 C5.34355513 6.88440321 4.7614318 5.16275632 2.5 2.5 C1.675 1.675 0.85 0.85 0 0 Z " fill="#1D6B9C" transform="translate(232,328)"/>
<path d="M0 0 C5.10880829 -0.61658031 5.10880829 -0.61658031 8 0 C10.44303403 2.03926899 12.2277425 4.36846614 14 7 C13.01 7.495 13.01 7.495 12 8 C11.34 7.67 10.68 7.34 10 7 C10 6.01 10 5.02 10 4 C8.35 4 6.7 4 5 4 C5.33 3.34 5.66 2.68 6 2 C3.03 1.505 3.03 1.505 0 1 C0 0.67 0 0.34 0 0 Z " fill="#1A6E9D" transform="translate(170,320)"/>
<path d="M0 0 C4.42066456 1.85667911 8.72934283 3.81259023 13 6 C13 6.33 13 6.66 13 7 C10.69 7 8.38 7 6 7 C5.7525 6.360625 5.505 5.72125 5.25 5.0625 C4.18437567 2.81258459 4.18437567 2.81258459 1.875 2.25 C0.946875 2.12625 0.946875 2.12625 0 2 C0 1.34 0 0.68 0 0 Z " fill="#1F82A5" transform="translate(224,275)"/>
<path d="M0 0 C0.66 0.5775 1.32 1.155 2 1.75 C5.47655106 4.35741329 9.07569099 6.16930498 13 8 C13 8.33 13 8.66 13 9 C11.02 9 9.04 9 7 9 C6.67 8.34 6.34 7.68 6 7 C3.47266765 6.34444881 3.47266765 6.34444881 1 6 C0.67 4.02 0.34 2.04 0 0 Z " fill="#1E80A0" transform="translate(219,234)"/>
<path d="M0 0 C1.125 3.75 1.125 3.75 0 6 C2.31 6 4.62 6 7 6 C7 6.66 7 7.32 7 8 C3.7 8 0.4 8 -3 8 C-1.125 2.25 -1.125 2.25 0 0 Z " fill="#289BAD" transform="translate(292,345)"/>
<path d="M0 0 C0 2.64 0 5.28 0 8 C-1.65 8 -3.3 8 -5 8 C-4.7525 7.1028125 -4.7525 7.1028125 -4.5 6.1875 C-3.8885876 3.88655664 -3.8885876 3.88655664 -4 1 C-1 0 -1 0 0 0 Z " fill="#10BED9" transform="translate(273,343)"/>
<path d="M0 0 C1.32 0 2.64 0 4 0 C4.27615058 1.59987236 4.52007625 3.205333 4.75 4.8125 C4.88921875 5.70582031 5.0284375 6.59914063 5.171875 7.51953125 C5 10 5 10 3.015625 11.82421875 C2.01789063 12.40623047 2.01789063 12.40623047 1 13 C1 11.68 1 10.36 1 9 C1.99 9 2.98 9 4 9 C2.68 6.03 1.36 3.06 0 0 Z " fill="#1B90A4" transform="translate(309,330)"/>
<path d="M0 0 C1.98 0 3.96 0 6 0 C5.67 0.66 5.34 1.32 5 2 C4.01 2 3.02 2 2 2 C2 2.66 2 3.32 2 4 C-0.64 4.99 -3.28 5.98 -6 7 C-6 6.01 -6 5.02 -6 4 C-4.02 3.67 -2.04 3.34 0 3 C0 2.01 0 1.02 0 0 Z " fill="#1A6F9E" transform="translate(267,293)"/>
<path d="M0 0 C0.99 0.33 1.98 0.66 3 1 C0.77243867 3.65593851 -0.65429605 4.89196752 -4 5.9375 C-7 6 -7 6 -9.375 4.5625 C-9.91125 4.046875 -10.4475 3.53125 -11 3 C-9.9275 3.061875 -8.855 3.12375 -7.75 3.1875 C-3.75118752 2.98755938 -2.94571553 2.4196949 0 0 Z " fill="#20829F" transform="translate(227,249)"/>
<path d="M0 0 C3.46941546 0.45822468 6.67395049 0.89131683 10 2 C10.6875 4.0625 10.6875 4.0625 11 6 C6.49197399 4.74194623 3.5087188 3.09592835 0 0 Z " fill="#218AAF" transform="translate(276,196)"/>
<path d="M0 0 C0.66 0.33 1.32 0.66 2 1 C1.0625 2.875 1.0625 2.875 -1 5 C-3.95485056 5.95351561 -6.9369519 6.51196718 -10 7 C-6.98387254 3.79017628 -3.91966781 1.99546725 0 0 Z " fill="#1C6B96" transform="translate(300,265)"/>
<path d="M0 0 C2.97069541 2.54631035 4.4775751 5.42230149 6 9 C5.67 9.66 5.34 10.32 5 11 C3.0625 10 3.0625 10 1 8 C0.33450549 5.30075428 0.18319237 2.79368363 0 0 Z " fill="#198198" transform="translate(323,339)"/>
<path d="M0 0 C-4.18461538 4.92307692 -4.18461538 4.92307692 -8.3125 5.3125 C-9.199375 5.209375 -10.08625 5.10625 -11 5 C-9.81924981 2.63849961 -8.87535361 2.12758006 -6.625 0.8125 C-6.01914062 0.44769531 -5.41328125 0.08289063 -4.7890625 -0.29296875 C-3 -1 -3 -1 0 0 Z " fill="#196C9A" transform="translate(290,273)"/>
<path d="M0 0 C3.96 1.98 7.92 3.96 12 6 C11.34 6.66 10.68 7.32 10 8 C9.34 7.67 8.68 7.34 8 7 C8 6.34 8 5.68 8 5 C5.03 4.505 5.03 4.505 2 4 C2 3.34 2 2.68 2 2 C1.34 2 0.68 2 0 2 C0 1.34 0 0.68 0 0 Z " fill="#2394AD" transform="translate(266,172)"/>
<path d="M0 0 C1.65 0 3.3 0 5 0 C5 1.32 5 2.64 5 4 C2.69 4 0.38 4 -2 4 C-1.34 2.68 -0.68 1.36 0 0 Z " fill="#13C0DD" transform="translate(311,341)"/>
<path d="M0 0 C0.99 0.33 1.98 0.66 3 1 C3 2.65 3 4.3 3 6 C1.68 6.33 0.36 6.66 -1 7 C-1.04254356 5.00045254 -1.04080783 2.99958364 -1 1 C-0.67 0.67 -0.34 0.34 0 0 Z " fill="#1F8CB0" transform="translate(232,243)"/>
<path d="M0 0 C0.33 0 0.66 0 1 0 C1 2.64 1 5.28 1 8 C-0.65 8 -2.3 8 -4 8 C-3.34 6.02 -2.68 4.04 -2 2 C-1.34 2 -0.68 2 0 2 C0 1.34 0 0.68 0 0 Z " fill="#23A9CC" transform="translate(218,231)"/>
<path d="M0 0 C-0.33 1.32 -0.66 2.64 -1 4 C-3.31 4 -5.62 4 -8 4 C-8 3.01 -8 2.02 -8 1 C-2.25 0 -2.25 0 0 0 Z " fill="#2CA0B6" transform="translate(228,180)"/>
<path d="M0 0 C2 1 2 1 3.125 3.6875 C3.98889074 6.9579435 4.16013991 9.63706182 4 13 C1.68917959 8.54341778 0 5.09639729 0 0 Z " fill="#166C95" transform="translate(244,327)"/>
<path d="M0 0 C3.26460973 1.80412643 4.88929795 2.83394693 7 6 C6.01 6.495 6.01 6.495 5 7 C5 6.34 5 5.68 5 5 C3.35 5 1.7 5 0 5 C0 3.35 0 1.7 0 0 Z " fill="#1E77A6" transform="translate(237,321)"/>
<path d="M0 0 C2.35171131 0.59861742 4.6859378 1.26924352 7 2 C7.33 2.66 7.66 3.32 8 4 C5.36 4.33 2.72 4.66 0 5 C0 3.35 0 1.7 0 0 Z " fill="#1B9ACA" transform="translate(239,250)"/>
<path d="M0 0 C-1.62249941 0.83819158 -3.24808497 1.6704116 -4.875 2.5 C-6.23238281 3.19609375 -6.23238281 3.19609375 -7.6171875 3.90625 C-10 5 -10 5 -12 5 C-12 4.34 -12 3.68 -12 3 C-10.68 3 -9.36 3 -8 3 C-8 2.01 -8 1.02 -8 0 C-4.90645403 -0.99435406 -3.09720845 -0.87840996 0 0 Z " fill="#229BB1" transform="translate(255,185)"/>
<path d="M0 0 C2.97 0 5.94 0 9 0 C9.33 0.99 9.66 1.98 10 3 C8.5625 5.1875 8.5625 5.1875 7 7 C7 5.02 7 3.04 7 1 C4.69 1 2.38 1 0 1 C0 0.67 0 0.34 0 0 Z " fill="#1F7C90" transform="translate(280,320)"/>
<path d="M0 0 C0.99 0.33 1.98 0.66 3 1 C2.67 2.65 2.34 4.3 2 6 C0.68 5.67 -0.64 5.34 -2 5 C-1.34 3.35 -0.68 1.7 0 0 Z " fill="#17BDD9" transform="translate(256,324)"/>
<path d="M0 0 C7.75 0.75 7.75 0.75 10 3 C9.67 3.66 9.34 4.32 9 5 C5.54074837 3.7508258 2.85306797 2.32472205 0 0 Z " fill="#1D7799" transform="translate(308,175)"/>
<path d="M0 0 C-2.90092502 1.93395001 -3.89674737 2.30131941 -7.1875 2.625 C-8.445625 2.74875 -9.70375 2.8725 -11 3 C-8.59404283 -1.81191435 -4.65715828 -1.05844506 0 0 Z " fill="#278DA3" transform="translate(258,167)"/>
<path d="M0 0 C1.65 0 3.3 0 5 0 C5 0.99 5 1.98 5 3 C5.66 3 6.32 3 7 3 C7 3.66 7 4.32 7 5 C4.0625 4.1875 4.0625 4.1875 1 3 C0.67 2.01 0.34 1.02 0 0 Z " fill="#2190AA" transform="translate(289,163)"/>
<path d="M0 0 C1.125 1.75 1.125 1.75 2 4 C1.125 6.25 1.125 6.25 0 8 C-0.99 8 -1.98 8 -3 8 C-1.125 2.25 -1.125 2.25 0 0 Z " fill="#1C93A7" transform="translate(279,321)"/>
<path d="M0 0 C1.98 0 3.96 0 6 0 C9 5.75 9 5.75 9 8 C8.01 7.67 7.02 7.34 6 7 C5.67 5.35 5.34 3.7 5 2 C3.35 1.67 1.7 1.34 0 1 C0 0.67 0 0.34 0 0 Z " fill="#1C7B97" transform="translate(309,320)"/>
<path d="M0 0 C2.64 0 5.28 0 8 0 C8 0.66 8 1.32 8 2 C6.35 2 4.7 2 3 2 C3 2.66 3 3.32 3 4 C2.34 4 1.68 4 1 4 C0.67 2.68 0.34 1.36 0 0 Z " fill="#1B79B1" transform="translate(194,320)"/>
<path d="M0 0 C4.12751449 0.60698743 7.3321148 2.03810791 11 4 C8.21176345 5.0326802 7.1322726 5.04509293 4.25 4.0625 C3.5075 3.711875 2.765 3.36125 2 3 C2 2.34 2 1.68 2 1 C1.34 0.67 0.68 0.34 0 0 Z " fill="#237398" transform="translate(288,222)"/>
<path d="M0 0 C0.66 0 1.32 0 2 0 C2 4 2 4 0.625 5.75 C-1 7 -1 7 -3 7 C-1.125 1.125 -1.125 1.125 0 0 Z " fill="#23ABBD" transform="translate(276,329)"/>
<path d="M0 0 C0.99 0.33 1.98 0.66 3 1 C2.67 3.31 2.34 5.62 2 8 C-0.1519437 4.77208445 -0.20086443 3.71599191 0 0 Z " fill="#1F7BAB" transform="translate(300,248)"/>
<path d="M0 0 C-1 3 -1 3 -3 5 C-3.99 5 -4.98 5 -6 5 C-6 4.01 -6 3.02 -6 2 C-2.25 0 -2.25 0 0 0 Z " fill="#207399" transform="translate(276,244)"/>
<path d="M0 0 C5.75 1.875 5.75 1.875 8 3 C8 3.66 8 4.32 8 5 C4.62537285 4.45276317 2.91765 3.9451 0 2 C0 1.34 0 0.68 0 0 Z " fill="#226F96" transform="translate(321,192)"/>
<path d="M0 0 C0.99 0 1.98 0 3 0 C3 0.66 3 1.32 3 2 C-1.38461538 5 -1.38461538 5 -4 5 C-4 4.34 -4 3.68 -4 3 C-4.66 2.67 -5.32 2.34 -6 2 C-4.02 2 -2.04 2 0 2 C0 1.34 0 0.68 0 0 Z " fill="#20A4B1" transform="translate(216,163)"/>
<path d="M0 0 C0.66 0 1.32 0 2 0 C1.40138258 2.35171131 0.73075648 4.6859378 0 7 C-0.99 7.495 -0.99 7.495 -2 8 C-2 6.02 -2 4.04 -2 2 C-1.34 2 -0.68 2 0 2 C0 1.34 0 0.68 0 0 Z " fill="#1A829C" transform="translate(301,344)"/>
<path d="M0 0 C0.66 0 1.32 0 2 0 C2 1.98 2 3.96 2 6 C1.01 6.33 0.02 6.66 -1 7 C-0.67 4.69 -0.34 2.38 0 0 Z " fill="#10C5DA" transform="translate(316,332)"/>
<path d="M0 0 C1 3 1 3 1 5 C0.01 5.33 -0.98 5.66 -2 6 C-2.66 6.99 -3.32 7.98 -4 9 C-3.46930939 5.17902761 -2.50298434 2.93828597 0 0 Z " fill="#1E6693" transform="translate(213,325)"/>
<path d="M0 0 C-3.96 1.98 -3.96 1.98 -8 4 C-7.67 2.68 -7.34 1.36 -7 0 C-4 -1 -4 -1 0 0 Z " fill="#1B6498" transform="translate(330,263)"/>
<path d="M0 0 C5.75 1.75 5.75 1.75 8 4 C1.25 3.25 1.25 3.25 -1 1 C-0.67 0.67 -0.34 0.34 0 0 Z " fill="#1F7E9D" transform="translate(240,248)"/>
<path d="M0 0 C0.33 0 0.66 0 1 0 C1 1.98 1 3.96 1 6 C-0.98 6.66 -2.96 7.32 -5 8 C-3.625 6 -3.625 6 -2 4 C-1.34 4 -0.68 4 0 4 C0 2.68 0 1.36 0 0 Z " fill="#1F91B2" transform="translate(209,186)"/>
<path d="M0 0 C2.625 1.4375 2.625 1.4375 5 3 C4.67 3.66 4.34 4.32 4 5 C2.02 4.34 0.04 3.68 -2 3 C-2 2.34 -2 1.68 -2 1 C-1.34 0.67 -0.68 0.34 0 0 Z " fill="#228EB3" transform="translate(319,178)"/>
<path d="M0 0 C0.99 0 1.98 0 3 0 C2.67 0.99 2.34 1.98 2 3 C1.01 3 0.02 3 -1 3 C-1 4.65 -1 6.3 -1 8 C-1.66 6.68 -2.32 5.36 -3 4 C-1.6875 2 -1.6875 2 0 0 Z " fill="#2AA4AD" transform="translate(178,173)"/>
<path d="M0 0 C0.66 0.33 1.32 0.66 2 1 C2 1.99 2 2.98 2 4 C1.01 4 0.02 4 -1 4 C-1.33 4.66 -1.66 5.32 -2 6 C-2.66 6 -3.32 6 -4 6 C-4 5.01 -4 4.02 -4 3 C-3.01 2.67 -2.02 2.34 -1 2 C-0.67 1.34 -0.34 0.68 0 0 Z " fill="#1BA4CC" transform="translate(313,167)"/>
</svg>
